<?xml version="1.0" standalone="no"?><!-- Generator: Gravit.io --><svg xmlns="http://www.w3.org/2000/svg" xmlns:xlink="http://www.w3.org/1999/xlink" style="isolation:isolate" viewBox="0 0 554.862 315" width="554.862" height="315"><g id="background"><g id="Group"><g id="Group"><rect x="0" y="0" width="554.862" height="315" transform="matrix(-1,0,0,-1,554.862,315)" fill="rgb(255,255,255)"/><g id="Group"><g id="Group"><g id="Group"><linearGradient id="_lgradient_0" x1="0%" y1="50.001071636575425%" x2="100.0001739163364%" y2="50.001071636575425%"><stop offset="0%" stop-opacity="1" style="stop-color:rgb(38,192,212)"/><stop offset="100%" stop-opacity="1" style="stop-color:rgb(152,210,177)"/></linearGradient><path d=" M 0 313.555 L 0 65.456 C 18.987 69.618 37.049 80.86 45.921 98.141 C 51.498 109.036 53.781 122.474 63.52 129.872 C 71.699 136.057 83.143 136.115 92.997 133.283 C 102.852 130.422 111.753 125.046 121.203 121 C 135.912 114.672 152.529 111.666 168.106 115.51 C 183.654 119.324 197.814 130.855 202.005 146.316 C 206.542 163.049 199.982 183.451 211.339 196.572 C 224.026 211.252 249.977 205.501 264.051 218.853 C 273.039 227.378 274.397 241.336 272.547 253.589 C 270.698 265.843 266.247 277.749 265.843 290.147 C 265.583 298.325 267.634 307.111 272.287 313.555 L 0 313.555 Z " fill="url(#_lgradient_0)"/></g></g></g></g></g></g></svg>