<svg xmlns="http://www.w3.org/2000/svg" xmlns:xlink="http://www.w3.org/1999/xlink" viewBox="0 0 397.25 365.22"><defs><style>.cls-1{fill:none;}.cls-2{isolation:isolate;}.cls-3{fill:#ff9d6f;}.cls-4{fill:#5c6bc0;}.cls-5{opacity:0.38;}.cls-6{fill:url(#linear-gradient);}.cls-7{fill:#8c9093;}.cls-8{fill:#919598;}.cls-9{fill:#969a9d;}.cls-10{fill:#9b9fa2;}.cls-11{fill:#a0a4a7;}.cls-12{fill:#a5a9ac;}.cls-13{fill:#a9aeb1;}.cls-14{fill:#aeb3b6;}.cls-15{fill:#2689fd;}.cls-16{fill:#f2f8fd;}.cls-118,.cls-136,.cls-137,.cls-138,.cls-17{opacity:0.32;mix-blend-mode:multiply;}.cls-18{fill:url(#linear-gradient-2);}.cls-19{clip-path:url(#clip-path);}.cls-20{fill:#037694;}.cls-21{fill:#037a99;}.cls-22{fill:#037e9e;}.cls-23{fill:#0383a3;}.cls-24{fill:#0387a8;}.cls-25{fill:#038bad;}.cls-26{fill:#038fb3;}.cls-27{fill:#0493b8;}.cls-28{clip-path:url(#clip-path-2);}.cls-29{fill:#036a85;}.cls-30{fill:#049dc5;}.cls-31{fill:#036d89;}.cls-32{clip-path:url(#clip-path-3);}.cls-33{fill:#03728f;}.cls-34{fill:#036e8a;}.cls-35{fill:url(#linear-gradient-3);}.cls-36{clip-path:url(#clip-path-4);}.cls-37{clip-path:url(#clip-path-5);}.cls-38{clip-path:url(#clip-path-6);}.cls-39{fill:url(#linear-gradient-4);}.cls-40{clip-path:url(#clip-path-7);}.cls-41{clip-path:url(#clip-path-8);}.cls-42{clip-path:url(#clip-path-9);}.cls-43{fill:url(#linear-gradient-5);}.cls-44{clip-path:url(#clip-path-10);}.cls-45{clip-path:url(#clip-path-11);}.cls-46{clip-path:url(#clip-path-12);}.cls-47{fill:url(#linear-gradient-6);}.cls-48{clip-path:url(#clip-path-13);}.cls-49{clip-path:url(#clip-path-14);}.cls-50{clip-path:url(#clip-path-15);}.cls-51{fill:url(#linear-gradient-7);}.cls-52{clip-path:url(#clip-path-16);}.cls-53{clip-path:url(#clip-path-17);}.cls-54{clip-path:url(#clip-path-18);}.cls-55{fill:url(#linear-gradient-8);}.cls-56{clip-path:url(#clip-path-19);}.cls-57{clip-path:url(#clip-path-20);}.cls-58{clip-path:url(#clip-path-21);}.cls-59{fill:url(#linear-gradient-9);}.cls-60{clip-path:url(#clip-path-22);}.cls-61{clip-path:url(#clip-path-23);}.cls-62{clip-path:url(#clip-path-24);}.cls-63{fill:url(#linear-gradient-10);}.cls-64{clip-path:url(#clip-path-25);}.cls-65{clip-path:url(#clip-path-26);}.cls-66{clip-path:url(#clip-path-27);}.cls-67{fill:url(#linear-gradient-11);}.cls-68{clip-path:url(#clip-path-28);}.cls-69{clip-path:url(#clip-path-29);}.cls-70{clip-path:url(#clip-path-30);}.cls-71{fill:url(#linear-gradient-12);}.cls-72{clip-path:url(#clip-path-31);}.cls-73{clip-path:url(#clip-path-32);}.cls-74{clip-path:url(#clip-path-33);}.cls-75{fill:url(#linear-gradient-13);}.cls-76{clip-path:url(#clip-path-34);}.cls-77{clip-path:url(#clip-path-35);}.cls-78{clip-path:url(#clip-path-36);}.cls-79{fill:url(#linear-gradient-14);}.cls-80{clip-path:url(#clip-path-37);}.cls-81{clip-path:url(#clip-path-38);}.cls-82{clip-path:url(#clip-path-39);}.cls-83{fill:url(#linear-gradient-15);}.cls-84{clip-path:url(#clip-path-40);}.cls-85{clip-path:url(#clip-path-41);}.cls-86{clip-path:url(#clip-path-42);}.cls-87{fill:url(#linear-gradient-16);}.cls-88{clip-path:url(#clip-path-43);}.cls-89{clip-path:url(#clip-path-44);}.cls-90{clip-path:url(#clip-path-45);}.cls-91{fill:url(#linear-gradient-17);}.cls-92{clip-path:url(#clip-path-46);}.cls-93{clip-path:url(#clip-path-47);}.cls-94{clip-path:url(#clip-path-48);}.cls-95{fill:url(#linear-gradient-18);}.cls-96{fill:#58affb;}.cls-97{fill:url(#linear-gradient-19);}.cls-98{fill:url(#linear-gradient-20);}.cls-99{fill:#33a398;}.cls-100{fill:url(#linear-gradient-21);}.cls-101{fill:#eceff1;}.cls-102{fill:#1ae5ff;}.cls-103{fill:#fff;}.cls-104,.cls-106{fill:#1ce5ff;}.cls-105{opacity:0.53;}.cls-106{opacity:0.3;}.cls-107{fill:#689f38;}.cls-108{fill:#558b2f;}.cls-109{fill:#9ccc65;}.cls-110{fill:#5155d4;}.cls-111{fill:#408da8;}.cls-112{fill:#0c55a5;}.cls-113{fill:#00cfff;}.cls-114{fill:#207f66;}.cls-115{fill:#42bca4;}.cls-116{fill:#26a581;}.cls-117{fill:#62d3a0;}.cls-118{fill:url(#linear-gradient-22);}.cls-119{fill:#113c7a;}.cls-120{fill:#047cff;}.cls-121{fill:#ff7c40;}.cls-122{fill:#ff7a00;}.cls-123{fill:url(#linear-gradient-23);}.cls-124{fill:url(#linear-gradient-24);}.cls-125{fill:url(#linear-gradient-25);}.cls-126{fill:url(#linear-gradient-26);}.cls-127{fill:url(#linear-gradient-27);}.cls-128{fill:url(#linear-gradient-28);}.cls-129{fill:url(#linear-gradient-29);}.cls-130{fill:url(#linear-gradient-30);}.cls-131{fill:#7986cb;}.cls-132{fill:url(#linear-gradient-31);}.cls-133{fill:url(#linear-gradient-32);}.cls-134{fill:#ff4174;}.cls-135{fill:#4697d3;}.cls-136{fill:url(#linear-gradient-33);}.cls-137{fill:url(#linear-gradient-34);}.cls-138{fill:url(#linear-gradient-35);}.cls-139{fill:#343996;}.cls-140{fill:#ff3d9d;}.cls-141{fill:#89543c;}.cls-142{fill:#80432a;}.cls-143{fill:#beecf2;}.cls-144{fill:#ff8654;}.cls-145{fill:#843837;}.cls-146{fill:url(#linear-gradient-36);}.cls-147{fill:#21b6c1;}.cls-148{fill:#eaeeee;}.cls-149{fill:#30b0d8;}.cls-150{fill:url(#linear-gradient-37);}.cls-151{fill:#00a5ff;}</style><linearGradient id="linear-gradient" x1="288.4" y1="143.92" x2="245.66" y2="292.57" gradientUnits="userSpaceOnUse"><stop offset="0" stop-color="#04bade"/><stop offset="1" stop-color="#1ebf60"/></linearGradient><linearGradient id="linear-gradient-2" x1="155.84" y1="280.27" x2="252.28" y2="280.27" xlink:href="#linear-gradient"/><clipPath id="clip-path" transform="translate(-60.75 -76.43)"><path class="cls-1" d="M215.35,215.05v1.12a.48.48,0,0,0,.27.39v-1.12A.52.52,0,0,1,215.35,215.05Z"/></clipPath><clipPath id="clip-path-2" transform="translate(-60.75 -76.43)"><path class="cls-1" d="M226.2,216.15V215a.51.51,0,0,1-.29.41v1.12A.49.49,0,0,0,226.2,216.15Z"/></clipPath><clipPath id="clip-path-3" transform="translate(-60.75 -76.43)"><path class="cls-1" d="M220.07,218v1.12a1.5,1.5,0,0,0,1.38,0V218A1.5,1.5,0,0,1,220.07,218Z"/></clipPath><linearGradient id="linear-gradient-3" x1="130.95" y1="251.28" x2="202.38" y2="208.92" gradientTransform="matrix(-1, 0, 0, 1, 412.84, 0)" gradientUnits="userSpaceOnUse"><stop offset="0" stop-color="#5155d4"/><stop offset="1" stop-color="#45f7ff"/></linearGradient><clipPath id="clip-path-4" transform="translate(-60.75 -76.43)"><path class="cls-1" d="M206.58,220.11v1.12a.48.48,0,0,0,.27.39V220.5A.52.52,0,0,1,206.58,220.11Z"/></clipPath><clipPath id="clip-path-5" transform="translate(-60.75 -76.43)"><path class="cls-1" d="M217.43,221.22V220.1a.5.5,0,0,1-.29.4v1.12A.48.48,0,0,0,217.43,221.22Z"/></clipPath><clipPath id="clip-path-6" transform="translate(-60.75 -76.43)"><path class="cls-1" d="M211.3,223.08v1.12a1.56,1.56,0,0,0,1.38,0v-1.12A1.53,1.53,0,0,1,211.3,223.08Z"/></clipPath><linearGradient id="linear-gradient-4" x1="135.45" y1="258.87" x2="206.88" y2="216.52" xlink:href="#linear-gradient-3"/><clipPath id="clip-path-7" transform="translate(-60.75 -76.43)"><path class="cls-1" d="M197.81,225.17v1.12a.45.45,0,0,0,.27.39v-1.12A.49.49,0,0,1,197.81,225.17Z"/></clipPath><clipPath id="clip-path-8" transform="translate(-60.75 -76.43)"><path class="cls-1" d="M208.66,226.28v-1.12a.49.49,0,0,1-.29.4v1.12A.47.47,0,0,0,208.66,226.28Z"/></clipPath><clipPath id="clip-path-9" transform="translate(-60.75 -76.43)"><path class="cls-1" d="M202.52,228.14v1.12a1.53,1.53,0,0,0,1.38,0v-1.12A1.55,1.55,0,0,1,202.52,228.14Z"/></clipPath><linearGradient id="linear-gradient-5" x1="139.95" y1="266.47" x2="211.38" y2="224.11" xlink:href="#linear-gradient-3"/><clipPath id="clip-path-10" transform="translate(-60.75 -76.43)"><path class="cls-1" d="M189,230.24v1.12a.48.48,0,0,0,.27.39v-1.12A.52.52,0,0,1,189,230.24Z"/></clipPath><clipPath id="clip-path-11" transform="translate(-60.75 -76.43)"><path class="cls-1" d="M199.89,231.34v-1.12a.51.51,0,0,1-.29.41v1.12A.49.49,0,0,0,199.89,231.34Z"/></clipPath><clipPath id="clip-path-12" transform="translate(-60.75 -76.43)"><path class="cls-1" d="M193.76,233.2v1.12a1.5,1.5,0,0,0,1.38,0V233.2A1.5,1.5,0,0,1,193.76,233.2Z"/></clipPath><linearGradient id="linear-gradient-6" x1="144.46" y1="274.06" x2="215.88" y2="231.71" xlink:href="#linear-gradient-3"/><clipPath id="clip-path-13" transform="translate(-60.75 -76.43)"><path class="cls-1" d="M180.27,235.3v1.12a.48.48,0,0,0,.27.39v-1.12A.49.49,0,0,1,180.27,235.3Z"/></clipPath><clipPath id="clip-path-14" transform="translate(-60.75 -76.43)"><path class="cls-1" d="M191.12,236.41v-1.12a.5.5,0,0,1-.29.4v1.12A.48.48,0,0,0,191.12,236.41Z"/></clipPath><clipPath id="clip-path-15" transform="translate(-60.75 -76.43)"><path class="cls-1" d="M185,238.27v1.12a1.53,1.53,0,0,0,1.38,0v-1.12A1.55,1.55,0,0,1,185,238.27Z"/></clipPath><linearGradient id="linear-gradient-7" x1="148.96" y1="281.65" x2="220.39" y2="239.3" xlink:href="#linear-gradient-3"/><clipPath id="clip-path-16" transform="translate(-60.75 -76.43)"><path class="cls-1" d="M171.5,240.36v1.12a.45.45,0,0,0,.27.39v-1.12A.47.47,0,0,1,171.5,240.36Z"/></clipPath><clipPath id="clip-path-17" transform="translate(-60.75 -76.43)"><path class="cls-1" d="M182.35,241.47v-1.12a.49.49,0,0,1-.29.4v1.12A.47.47,0,0,0,182.35,241.47Z"/></clipPath><clipPath id="clip-path-18" transform="translate(-60.75 -76.43)"><path class="cls-1" d="M176.21,243.33v1.12a1.53,1.53,0,0,0,1.38,0v-1.12A1.55,1.55,0,0,1,176.21,243.33Z"/></clipPath><linearGradient id="linear-gradient-8" x1="153.46" y1="289.25" x2="224.89" y2="246.89" xlink:href="#linear-gradient-3"/><clipPath id="clip-path-19" transform="translate(-60.75 -76.43)"><path class="cls-1" d="M223.9,220v1.12a.47.47,0,0,0,.28.4v-1.12A.49.49,0,0,1,223.9,220Z"/></clipPath><clipPath id="clip-path-20" transform="translate(-60.75 -76.43)"><path class="cls-1" d="M234.76,221.13V220a.49.49,0,0,1-.28.4v1.12A.5.5,0,0,0,234.76,221.13Z"/></clipPath><clipPath id="clip-path-21" transform="translate(-60.75 -76.43)"><path class="cls-1" d="M228.62,223v1.12a1.61,1.61,0,0,0,1.39,0V223A1.59,1.59,0,0,1,228.62,223Z"/></clipPath><linearGradient id="linear-gradient-9" x1="130.9" y1="251.2" x2="202.33" y2="208.85" xlink:href="#linear-gradient-3"/><clipPath id="clip-path-22" transform="translate(-60.75 -76.43)"><path class="cls-1" d="M232.78,225.17v1.12a.47.47,0,0,0,.28.39v-1.12A.45.45,0,0,1,232.78,225.17Z"/></clipPath><clipPath id="clip-path-23" transform="translate(-60.75 -76.43)"><path class="cls-1" d="M243.63,226.28v-1.12a.49.49,0,0,1-.29.4v1.12A.49.49,0,0,0,243.63,226.28Z"/></clipPath><clipPath id="clip-path-24" transform="translate(-60.75 -76.43)"><path class="cls-1" d="M237.49,228.14v1.12a1.55,1.55,0,0,0,1.39,0v-1.12A1.53,1.53,0,0,1,237.49,228.14Z"/></clipPath><linearGradient id="linear-gradient-10" x1="130.86" y1="251.13" x2="202.29" y2="208.77" xlink:href="#linear-gradient-3"/><clipPath id="clip-path-25" transform="translate(-60.75 -76.43)"><path class="cls-1" d="M215.13,225.08v1.12a.47.47,0,0,0,.28.39v-1.12A.49.49,0,0,1,215.13,225.08Z"/></clipPath><clipPath id="clip-path-26" transform="translate(-60.75 -76.43)"><path class="cls-1" d="M226,226.19v-1.12a.47.47,0,0,1-.28.4v1.12A.49.49,0,0,0,226,226.19Z"/></clipPath><clipPath id="clip-path-27" transform="translate(-60.75 -76.43)"><path class="cls-1" d="M219.85,228.05v1.12a1.55,1.55,0,0,0,1.39,0v-1.12A1.53,1.53,0,0,1,219.85,228.05Z"/></clipPath><linearGradient id="linear-gradient-11" x1="135.41" y1="258.8" x2="206.83" y2="216.44" xlink:href="#linear-gradient-3"/><clipPath id="clip-path-28" transform="translate(-60.75 -76.43)"><path class="cls-1" d="M206.36,230.14v1.12a.49.49,0,0,0,.28.4v-1.12A.5.5,0,0,1,206.36,230.14Z"/></clipPath><clipPath id="clip-path-29" transform="translate(-60.75 -76.43)"><path class="cls-1" d="M217.22,231.25v-1.12a.5.5,0,0,1-.28.41v1.12A.51.51,0,0,0,217.22,231.25Z"/></clipPath><clipPath id="clip-path-30" transform="translate(-60.75 -76.43)"><path class="cls-1" d="M211.08,233.11v1.12a1.55,1.55,0,0,0,1.39,0v-1.12A1.53,1.53,0,0,1,211.08,233.11Z"/></clipPath><linearGradient id="linear-gradient-12" x1="139.91" y1="266.39" x2="211.34" y2="224.04" xlink:href="#linear-gradient-3"/><clipPath id="clip-path-31" transform="translate(-60.75 -76.43)"><path class="cls-1" d="M197.59,235.2v1.12a.47.47,0,0,0,.28.4V235.6A.49.49,0,0,1,197.59,235.2Z"/></clipPath><clipPath id="clip-path-32" transform="translate(-60.75 -76.43)"><path class="cls-1" d="M208.45,236.32V235.2a.49.49,0,0,1-.28.4v1.12A.5.5,0,0,0,208.45,236.32Z"/></clipPath><clipPath id="clip-path-33" transform="translate(-60.75 -76.43)"><path class="cls-1" d="M202.31,238.18v1.12a1.61,1.61,0,0,0,1.39,0v-1.12A1.59,1.59,0,0,1,202.31,238.18Z"/></clipPath><linearGradient id="linear-gradient-13" x1="144.41" y1="273.98" x2="215.84" y2="231.63" xlink:href="#linear-gradient-3"/><clipPath id="clip-path-34" transform="translate(-60.75 -76.43)"><path class="cls-1" d="M188.82,240.27v1.12a.47.47,0,0,0,.28.39v-1.12A.49.49,0,0,1,188.82,240.27Z"/></clipPath><clipPath id="clip-path-35" transform="translate(-60.75 -76.43)"><path class="cls-1" d="M199.68,241.38v-1.12a.47.47,0,0,1-.28.4v1.12A.49.49,0,0,0,199.68,241.38Z"/></clipPath><clipPath id="clip-path-36" transform="translate(-60.75 -76.43)"><path class="cls-1" d="M193.54,243.24v1.12a1.55,1.55,0,0,0,1.39,0v-1.12A1.53,1.53,0,0,1,193.54,243.24Z"/></clipPath><linearGradient id="linear-gradient-14" x1="148.91" y1="281.58" x2="220.34" y2="239.22" xlink:href="#linear-gradient-3"/><clipPath id="clip-path-37" transform="translate(-60.75 -76.43)"><path class="cls-1" d="M235,231.25v-1.12a.5.5,0,0,1-.29.4v1.12A.49.49,0,0,0,235,231.25Z"/></clipPath><clipPath id="clip-path-38" transform="translate(-60.75 -76.43)"><path class="cls-1" d="M197.86,245.33v1.12a.47.47,0,0,0,.28.39v-1.12A.49.49,0,0,1,197.86,245.33Z"/></clipPath><clipPath id="clip-path-39" transform="translate(-60.75 -76.43)"><path class="cls-1" d="M202.58,248.3v1.12a1.53,1.53,0,0,0,1.38,0V248.3A1.53,1.53,0,0,1,202.58,248.3Z"/></clipPath><linearGradient id="linear-gradient-15" x1="142.03" y1="269.97" x2="213.46" y2="227.61" xlink:href="#linear-gradient-3"/><clipPath id="clip-path-40" transform="translate(-60.75 -76.43)"><path class="cls-1" d="M180.05,245.33v1.12a.49.49,0,0,0,.28.4v-1.12A.5.5,0,0,1,180.05,245.33Z"/></clipPath><clipPath id="clip-path-41" transform="translate(-60.75 -76.43)"><path class="cls-1" d="M190.91,246.44v-1.12a.5.5,0,0,1-.28.41v1.12A.51.51,0,0,0,190.91,246.44Z"/></clipPath><clipPath id="clip-path-42" transform="translate(-60.75 -76.43)"><path class="cls-1" d="M184.77,248.3v1.12a1.55,1.55,0,0,0,1.39,0V248.3A1.53,1.53,0,0,1,184.77,248.3Z"/></clipPath><linearGradient id="linear-gradient-16" x1="153.42" y1="289.17" x2="224.84" y2="246.82" xlink:href="#linear-gradient-3"/><clipPath id="clip-path-43" transform="translate(-60.75 -76.43)"><path class="cls-1" d="M189.09,250.58v1.12a.51.51,0,0,0,.28.4V251A.49.49,0,0,1,189.09,250.58Z"/></clipPath><clipPath id="clip-path-44" transform="translate(-60.75 -76.43)"><path class="cls-1" d="M200,251.69v-1.12a.49.49,0,0,1-.29.41v1.12A.51.51,0,0,0,200,251.69Z"/></clipPath><clipPath id="clip-path-45" transform="translate(-60.75 -76.43)"><path class="cls-1" d="M193.81,253.55v1.12a1.5,1.5,0,0,0,1.38,0v-1.12A1.5,1.5,0,0,1,193.81,253.55Z"/></clipPath><linearGradient id="linear-gradient-17" x1="153.37" y1="289.09" x2="224.8" y2="246.74" xlink:href="#linear-gradient-3"/><clipPath id="clip-path-46" transform="translate(-60.75 -76.43)"><path class="cls-1" d="M162.73,245.43v1.12a.48.48,0,0,0,.27.39v-1.12A.49.49,0,0,1,162.73,245.43Z"/></clipPath><clipPath id="clip-path-47" transform="translate(-60.75 -76.43)"><path class="cls-1" d="M187.79,254.79v-1.12a.48.48,0,0,1-.29.4v1.12A.5.5,0,0,0,187.79,254.79Z"/></clipPath><clipPath id="clip-path-48" transform="translate(-60.75 -76.43)"><path class="cls-1" d="M181.65,256.65v1.12a1.53,1.53,0,0,0,1.38,0v-1.12A1.53,1.53,0,0,1,181.65,256.65Z"/></clipPath><linearGradient id="linear-gradient-18" x1="157.93" y1="296.78" x2="229.35" y2="254.43" xlink:href="#linear-gradient-3"/><linearGradient id="linear-gradient-19" x1="97.61" y1="366.16" x2="347.59" y2="366.16" xlink:href="#linear-gradient"/><linearGradient id="linear-gradient-20" x1="182.13" y1="347.86" x2="193.1" y2="403.99" gradientUnits="userSpaceOnUse"><stop offset="0" stop-color="#fff"/><stop offset="1" stop-color="#8ae6ff"/></linearGradient><linearGradient id="linear-gradient-21" x1="250.73" y1="380.88" x2="290.08" y2="442.17" xlink:href="#linear-gradient-20"/><linearGradient id="linear-gradient-22" x1="148.3" y1="388.11" x2="195.24" y2="388.11" gradientTransform="matrix(-1, 0, 0, 1, 220.16, -76.43)" xlink:href="#linear-gradient"/><linearGradient id="linear-gradient-23" x1="77.25" y1="194.57" x2="85.25" y2="194.57" xlink:href="#linear-gradient"/><linearGradient id="linear-gradient-24" x1="300.25" y1="321.57" x2="308.25" y2="321.57" xlink:href="#linear-gradient"/><linearGradient id="linear-gradient-25" x1="438.67" y1="247" x2="445.33" y2="247" xlink:href="#linear-gradient"/><linearGradient id="linear-gradient-26" x1="211" y1="2" x2="215" y2="2" xlink:href="#linear-gradient"/><linearGradient id="linear-gradient-27" x1="37.25" y1="352.57" x2="41.25" y2="352.57" xlink:href="#linear-gradient"/><linearGradient id="linear-gradient-28" x1="60.75" y1="229.76" x2="65.42" y2="229.76" gradientUnits="userSpaceOnUse"><stop offset="0" stop-color="#1ae5ff"/><stop offset="1" stop-color="#eaeeee"/></linearGradient><linearGradient id="linear-gradient-29" x1="383.92" y1="289.24" x2="388.58" y2="289.24" xlink:href="#linear-gradient-28"/><linearGradient id="linear-gradient-30" x1="140.08" y1="182.76" x2="144.75" y2="182.76" xlink:href="#linear-gradient-28"/><linearGradient id="linear-gradient-31" x1="-460.33" y1="214.41" x2="-432.68" y2="214.41" gradientTransform="matrix(-1, 0, 0, 1, -313.22, 0)" gradientUnits="userSpaceOnUse"><stop offset="0" stop-color="#f38273"/><stop offset="1" stop-color="#ff2fcc"/></linearGradient><linearGradient id="linear-gradient-32" x1="-460.33" y1="219.76" x2="-436.66" y2="219.76" xlink:href="#linear-gradient-31"/><linearGradient id="linear-gradient-33" x1="467.71" y1="415.1" x2="517.07" y2="415.1" gradientTransform="translate(-393.81 -76.43)" xlink:href="#linear-gradient"/><linearGradient id="linear-gradient-34" x1="899.71" y1="261.1" x2="949.07" y2="261.1" gradientTransform="matrix(-1, 0, 0, 1, 1170.62, -76.43)" xlink:href="#linear-gradient"/><linearGradient id="linear-gradient-35" x1="509.73" y1="309.28" x2="550.73" y2="309.28" gradientTransform="matrix(-1, 0, 0, 1, 707.9, -76.43)" xlink:href="#linear-gradient"/><linearGradient id="linear-gradient-36" x1="424.19" y1="243.84" x2="330.53" y2="373.97" gradientTransform="translate(2.44 -3.79) rotate(0.59)" xlink:href="#linear-gradient"/><linearGradient id="linear-gradient-37" x1="234.18" y1="198.83" x2="381.39" y2="198.83" xlink:href="#linear-gradient"/></defs><title>2579709</title><g class="cls-2"><g id="OBJECTS"><path class="cls-3" d="M292.32,175.64s-.75-2.91-.82-3.28.31-2.11-.43-2.59S290,172,290,172s-3.59-3.08-4.45-2.89-.19,2.72.71,3.93a18.47,18.47,0,0,0,2.31,2.45l.75,1.12Z" transform="translate(-60.75 -76.43)"/><path class="cls-4" d="M314,183.61s-9.7,5.63-13.54,4.4-8.17-13.6-8.17-13.6a3.69,3.69,0,0,0-3.57,2.46s4.64,13.84,8.17,16.84,16.94.33,19.56-1.76,2.36-5.78.94-6.84A10,10,0,0,0,314,183.61Z" transform="translate(-60.75 -76.43)"/><g class="cls-5"><path class="cls-6" d="M313.71,222.75l-44.16,25.66a6,6,0,0,1-6,0l-44.48-25.68a2.59,2.59,0,0,1,0-4.49l44.43-25.82a5.46,5.46,0,0,1,5.47,0l44.74,25.83A2.59,2.59,0,0,1,313.71,222.75Z" transform="translate(-60.75 -76.43)"/></g><g class="cls-2"><path class="cls-7" d="M155.84,245.47v0" transform="translate(-60.75 -76.43)"/><path class="cls-8" d="M155.84,245.49v3.36a.41.41,0,0,0,0,.11V245.6a.41.41,0,0,1,0-.11" transform="translate(-60.75 -76.43)"/><path class="cls-9" d="M155.85,245.6V249l0,.1V245.7l0-.1" transform="translate(-60.75 -76.43)"/><path class="cls-10" d="M155.88,245.7v3.36l.05.11v-3.36l-.05-.11" transform="translate(-60.75 -76.43)"/><path class="cls-11" d="M155.93,245.81v3.36a.76.76,0,0,0,.08.11v-3.36a.76.76,0,0,1-.08-.11" transform="translate(-60.75 -76.43)"/><path class="cls-12" d="M156,245.92v3.36l.11.12V246l-.11-.12" transform="translate(-60.75 -76.43)"/><path class="cls-13" d="M156.12,246v3.36a1.5,1.5,0,0,0,.24.18v-3.36a1.5,1.5,0,0,1-.24-.18" transform="translate(-60.75 -76.43)"/><path class="cls-14" d="M156.36,246.22v3.36h0v-3.36h0" transform="translate(-60.75 -76.43)"/></g><path class="cls-15" d="M251.73,227.16a.93.93,0,0,0,.55-.77v3.36a.93.93,0,0,1-.55.77l-63,36.35v-3.36Z" transform="translate(-60.75 -76.43)"/><path class="cls-15" d="M156.38,246.23l29.74,17.29a2.49,2.49,0,0,0,.58.22l.08,0a3.5,3.5,0,0,0,.65.07h0a3.08,3.08,0,0,0,.68-.08h0a2.35,2.35,0,0,0,.61-.24v3.36a1.69,1.69,0,0,1-.27.13l-.23.08-.11,0h0l-.06,0-.19,0-.18,0h-.59l-.24,0-.1,0-.09,0-.16-.05a1.86,1.86,0,0,1-.41-.17l-29.74-17.29a.92.92,0,0,1-.54-.76v-3.36A.92.92,0,0,0,156.38,246.23Z" transform="translate(-60.75 -76.43)"/><path class="cls-16" d="M156.4,244.7c-.74.42-.75,1.11,0,1.53l29.74,17.29a2.91,2.91,0,0,0,2.65,0l63-36.35a.81.81,0,0,0,0-1.53L222,208.35a2.92,2.92,0,0,0-2.64,0Z" transform="translate(-60.75 -76.43)"/><g class="cls-17"><path class="cls-18" d="M156.4,289c-.74.43-.75,1.11,0,1.53l29.74,17.29a2.94,2.94,0,0,0,2.65,0l63-36.35a.81.81,0,0,0,0-1.53L222,252.68a2.92,2.92,0,0,0-2.64,0Z" transform="translate(-60.75 -76.43)"/></g><g class="cls-2"><g class="cls-2"><g class="cls-19"><g class="cls-2"><polyline class="cls-20" points="154.6 138.62 154.61 139.74 154.61 139.75 154.6 138.63 154.6 138.62"/><path class="cls-21" d="M215.35,215.06v.05a.07.07,0,0,0,0-.05" transform="translate(-60.75 -76.43)"/><path class="cls-22" d="M215.36,215.11v1.12s0,0,0,.06v-1.12a.14.14,0,0,1,0-.06" transform="translate(-60.75 -76.43)"/><path class="cls-23" d="M215.38,215.17v1.12l0,.05v-1.12s0,0,0-.05" transform="translate(-60.75 -76.43)"/><path class="cls-24" d="M215.4,215.22v1.12l0,.06v-1.12l0-.06" transform="translate(-60.75 -76.43)"/><path class="cls-25" d="M215.44,215.28v1.12l.06.06v-1.12l-.06-.06" transform="translate(-60.75 -76.43)"/><path class="cls-26" d="M215.5,215.34v1.12l.12.09v-1.12l-.12-.09" transform="translate(-60.75 -76.43)"/><polyline class="cls-27" points="154.87 139 154.87 140.12 154.88 140.13 154.88 139.01 154.87 139"/></g></g></g><g class="cls-2"><g class="cls-28"><g class="cls-2"><path class="cls-29" d="M225.91,215.44v1.12a.49.49,0,0,0,.29-.41V215a.51.51,0,0,1-.29.41" transform="translate(-60.75 -76.43)"/></g></g></g><polygon class="cls-30" points="154.88 139.01 154.88 140.13 159.32 142.71 159.31 141.59 154.88 139.01"/><polygon class="cls-31" points="160.69 141.59 160.7 142.71 165.16 140.13 165.16 139.01 160.69 141.59"/><g class="cls-2"><g class="cls-32"><g class="cls-2"><path class="cls-27" d="M220.07,218v1.12a1.36,1.36,0,0,0,.21.1v-1.12a1,1,0,0,1-.21-.1" transform="translate(-60.75 -76.43)"/><path class="cls-26" d="M220.28,218.11v1.12l.19,0v-1.12l-.18,0" transform="translate(-60.75 -76.43)"/><path class="cls-25" d="M220.46,218.15v1.12l.12,0v-1.12l-.13,0" transform="translate(-60.75 -76.43)"/><path class="cls-24" d="M220.59,218.17v1.12h.11v-1.12h-.11" transform="translate(-60.75 -76.43)"/><path class="cls-23" d="M220.7,218.18v1.12h.1v-1.12h-.1" transform="translate(-60.75 -76.43)"/><path class="cls-22" d="M220.8,218.18v1.12h.1v-1.12h-.09" transform="translate(-60.75 -76.43)"/><path class="cls-21" d="M220.89,218.17v1.12H221v-1.12h-.1" transform="translate(-60.75 -76.43)"/><path class="cls-20" d="M221,218.16v1.12h.1v-1.12H221" transform="translate(-60.75 -76.43)"/><path class="cls-33" d="M221.09,218.15v1.12l.1,0v-1.12l-.1,0" transform="translate(-60.75 -76.43)"/><path class="cls-34" d="M221.19,218.12v1.12l.12,0v-1.12l-.12,0" transform="translate(-60.75 -76.43)"/><path class="cls-29" d="M221.31,218.08v1.12a.61.61,0,0,0,.14-.07V218l-.14.07" transform="translate(-60.75 -76.43)"/></g></g></g><path class="cls-35" d="M215.64,214.64a.43.43,0,0,0,0,.8l4.44,2.57a1.5,1.5,0,0,0,1.38,0l4.46-2.57c.39-.23.39-.58,0-.8l-4.43-2.58a1.5,1.5,0,0,0-1.37,0Z" transform="translate(-60.75 -76.43)"/></g><g class="cls-2"><g class="cls-2"><g class="cls-36"><g class="cls-2"><polyline class="cls-20" points="145.83 143.68 145.84 144.8 145.84 144.81 145.83 143.69 145.83 143.68"/><path class="cls-21" d="M206.58,220.12v.06a.13.13,0,0,0,0-.06" transform="translate(-60.75 -76.43)"/><path class="cls-22" d="M206.59,220.18v1.12s0,0,0,0v-1.12l0,0" transform="translate(-60.75 -76.43)"/><path class="cls-23" d="M206.61,220.23v1.12l0,.05v-1.11a.14.14,0,0,1,0-.06" transform="translate(-60.75 -76.43)"/><path class="cls-24" d="M206.63,220.29v1.11l0,.06v-1.12l0-.05" transform="translate(-60.75 -76.43)"/><path class="cls-25" d="M206.67,220.34v1.12l.06.07v-1.12l-.06-.07" transform="translate(-60.75 -76.43)"/><path class="cls-26" d="M206.73,220.41v1.12l.12.08v-1.12a.36.36,0,0,1-.12-.08" transform="translate(-60.75 -76.43)"/><polyline class="cls-27" points="146.1 144.06 146.1 145.18 146.11 145.19 146.11 144.07 146.1 144.06"/></g></g></g><g class="cls-2"><g class="cls-37"><g class="cls-2"><path class="cls-29" d="M217.14,220.5v1.12a.48.48,0,0,0,.29-.4V220.1a.5.5,0,0,1-.29.4" transform="translate(-60.75 -76.43)"/></g></g></g><polygon class="cls-30" points="146.11 144.07 146.11 145.19 150.55 147.77 150.54 146.65 146.11 144.07"/><polygon class="cls-31" points="151.93 146.65 151.93 147.77 156.39 145.19 156.39 144.07 151.93 146.65"/><g class="cls-2"><g class="cls-38"><g class="cls-2"><path class="cls-27" d="M211.3,223.08v1.12a.78.78,0,0,0,.21.09v-1.12a.67.67,0,0,1-.21-.09" transform="translate(-60.75 -76.43)"/><path class="cls-26" d="M211.51,223.17v1.12l.19.05v-1.12l-.18-.05" transform="translate(-60.75 -76.43)"/><path class="cls-25" d="M211.69,223.22v1.12h.12v-1.12h-.13" transform="translate(-60.75 -76.43)"/><path class="cls-24" d="M211.82,223.23v1.12h.11v-1.12h-.11" transform="translate(-60.75 -76.43)"/><path class="cls-23" d="M211.93,223.24v1.12h.1v-1.12h-.1" transform="translate(-60.75 -76.43)"/><path class="cls-22" d="M212,223.24v1.12h.1v-1.12H212" transform="translate(-60.75 -76.43)"/><path class="cls-21" d="M212.12,223.24v1.12h.09v-1.12h-.1" transform="translate(-60.75 -76.43)"/><path class="cls-20" d="M212.22,223.23v1.12l.1,0v-1.12l-.1,0" transform="translate(-60.75 -76.43)"/><path class="cls-33" d="M212.32,223.21v1.12l.1,0v-1.12l-.1,0" transform="translate(-60.75 -76.43)"/><path class="cls-34" d="M212.42,223.18v1.12l.12,0v-1.12l-.12,0" transform="translate(-60.75 -76.43)"/><path class="cls-29" d="M212.54,223.14v1.12l.14-.06v-1.12a.84.84,0,0,1-.14.06" transform="translate(-60.75 -76.43)"/></g></g></g><path class="cls-39" d="M206.87,219.71a.42.42,0,0,0,0,.79l4.44,2.58a1.53,1.53,0,0,0,1.38,0l4.46-2.58a.42.42,0,0,0,0-.8l-4.43-2.58a1.54,1.54,0,0,0-1.37,0Z" transform="translate(-60.75 -76.43)"/></g><g class="cls-2"><g class="cls-2"><g class="cls-40"><g class="cls-2"><polyline class="cls-20" points="137.06 148.75 137.07 149.87 137.07 149.87 137.06 148.75 137.06 148.75"/><path class="cls-21" d="M197.81,225.18v.06a.13.13,0,0,0,0-.06" transform="translate(-60.75 -76.43)"/><path class="cls-22" d="M197.82,225.24v1.12s0,0,0,0v-1.12a.08.08,0,0,1,0,0" transform="translate(-60.75 -76.43)"/><path class="cls-23" d="M197.84,225.29v1.12l0,.06v-1.12a.14.14,0,0,1,0-.06" transform="translate(-60.75 -76.43)"/><path class="cls-24" d="M197.86,225.35v1.12l0,.06v-1.12l0-.06" transform="translate(-60.75 -76.43)"/><path class="cls-25" d="M197.9,225.41v1.12l.06.06v-1.12l-.06-.06" transform="translate(-60.75 -76.43)"/><path class="cls-26" d="M198,225.47v1.12l.12.09v-1.12l-.12-.09" transform="translate(-60.75 -76.43)"/><polyline class="cls-27" points="137.33 149.13 137.33 150.25 137.34 150.25 137.34 149.13 137.33 149.13"/></g></g></g><g class="cls-2"><g class="cls-41"><g class="cls-2"><path class="cls-29" d="M208.37,225.56v1.12a.47.47,0,0,0,.29-.4v-1.12a.49.49,0,0,1-.29.4" transform="translate(-60.75 -76.43)"/></g></g></g><polygon class="cls-30" points="137.34 149.13 137.34 150.25 141.78 152.83 141.77 151.71 137.34 149.13"/><polygon class="cls-31" points="143.16 151.71 143.16 152.83 147.62 150.25 147.62 149.13 143.16 151.71"/><g class="cls-2"><g class="cls-42"><g class="cls-2"><path class="cls-27" d="M202.52,228.14v1.12a.78.78,0,0,0,.21.09v-1.12a.85.85,0,0,1-.22-.09" transform="translate(-60.75 -76.43)"/><path class="cls-26" d="M202.74,228.23v1.12l.19.05v-1.12l-.18-.05" transform="translate(-60.75 -76.43)"/><path class="cls-25" d="M202.92,228.28v1.12l.12,0V228.3l-.13,0" transform="translate(-60.75 -76.43)"/><path class="cls-24" d="M203.05,228.3v1.12h.11v-1.11h-.11" transform="translate(-60.75 -76.43)"/><path class="cls-23" d="M203.16,228.31v1.11h.1v-1.12h-.1" transform="translate(-60.75 -76.43)"/><path class="cls-22" d="M203.26,228.31v1.12h.1V228.3h-.09" transform="translate(-60.75 -76.43)"/><path class="cls-21" d="M203.35,228.3v1.12h.09v-1.12h-.1" transform="translate(-60.75 -76.43)"/><path class="cls-20" d="M203.45,228.29v1.12l.1,0v-1.12l-.1,0" transform="translate(-60.75 -76.43)"/><path class="cls-33" d="M203.55,228.27v1.12l.1,0v-1.12l-.1,0" transform="translate(-60.75 -76.43)"/><path class="cls-34" d="M203.65,228.25v1.12l.12,0v-1.12l-.12,0" transform="translate(-60.75 -76.43)"/><path class="cls-29" d="M203.77,228.21v1.12l.14-.07v-1.12l-.14.07" transform="translate(-60.75 -76.43)"/></g></g></g><path class="cls-43" d="M198.1,224.77c-.37.22-.38.58,0,.79l4.43,2.58a1.55,1.55,0,0,0,1.39,0l4.46-2.58c.39-.22.39-.57,0-.8l-4.43-2.57a1.5,1.5,0,0,0-1.37,0Z" transform="translate(-60.75 -76.43)"/></g><g class="cls-2"><g class="cls-2"><g class="cls-44"><g class="cls-2"><polyline class="cls-20" points="128.29 153.81 128.3 154.93 128.3 154.94 128.29 153.82 128.29 153.81"/><path class="cls-21" d="M189,230.25v.05a.07.07,0,0,0,0-.05" transform="translate(-60.75 -76.43)"/><path class="cls-22" d="M189.05,230.3v1.12s0,0,0,.06v-1.12a.14.14,0,0,1,0-.06" transform="translate(-60.75 -76.43)"/><path class="cls-23" d="M189.07,230.36v1.12l0,.05v-1.12s0,0,0,0" transform="translate(-60.75 -76.43)"/><path class="cls-24" d="M189.09,230.41v1.12l0,.06v-1.12l0-.06" transform="translate(-60.75 -76.43)"/><path class="cls-25" d="M189.13,230.47v1.12l.06.06v-1.12l-.06-.06" transform="translate(-60.75 -76.43)"/><path class="cls-26" d="M189.19,230.53v1.12l.12.09v-1.12l-.12-.09" transform="translate(-60.75 -76.43)"/><polyline class="cls-27" points="128.56 154.19 128.56 155.31 128.57 155.32 128.57 154.2 128.56 154.19"/></g></g></g><g class="cls-2"><g class="cls-45"><g class="cls-2"><path class="cls-29" d="M199.6,230.63v1.12a.49.49,0,0,0,.29-.41v-1.12a.51.51,0,0,1-.29.41" transform="translate(-60.75 -76.43)"/></g></g></g><polygon class="cls-30" points="128.57 154.2 128.57 155.32 133.01 157.9 133 156.78 128.57 154.2"/><polygon class="cls-31" points="134.38 156.78 134.39 157.9 138.85 155.32 138.85 154.2 134.38 156.78"/><g class="cls-2"><g class="cls-46"><g class="cls-2"><path class="cls-27" d="M193.76,233.2v1.12a1.36,1.36,0,0,0,.21.1V233.3a1,1,0,0,1-.21-.1" transform="translate(-60.75 -76.43)"/><path class="cls-26" d="M194,233.3v1.12l.19,0v-1.12l-.18,0" transform="translate(-60.75 -76.43)"/><path class="cls-25" d="M194.15,233.34v1.12l.12,0v-1.12l-.13,0" transform="translate(-60.75 -76.43)"/><path class="cls-24" d="M194.28,233.36v1.12h.11v-1.12h-.11" transform="translate(-60.75 -76.43)"/><path class="cls-23" d="M194.39,233.37v1.12h.1v-1.12h-.1" transform="translate(-60.75 -76.43)"/><path class="cls-22" d="M194.49,233.37v1.12h.1v-1.12h-.09" transform="translate(-60.75 -76.43)"/><path class="cls-21" d="M194.58,233.36v1.12h.09v-1.12h-.1" transform="translate(-60.75 -76.43)"/><path class="cls-20" d="M194.68,233.35v1.12h.1v-1.12h-.1" transform="translate(-60.75 -76.43)"/><path class="cls-33" d="M194.78,233.34v1.12l.1,0v-1.12l-.1,0" transform="translate(-60.75 -76.43)"/><path class="cls-34" d="M194.88,233.31v1.12l.12,0v-1.12l-.12,0" transform="translate(-60.75 -76.43)"/><path class="cls-29" d="M195,233.27v1.12a.61.61,0,0,0,.14-.07V233.2l-.14.07" transform="translate(-60.75 -76.43)"/></g></g></g><path class="cls-47" d="M189.33,229.83a.43.43,0,0,0,0,.8l4.44,2.57a1.5,1.5,0,0,0,1.38,0l4.46-2.57c.39-.23.39-.58,0-.8l-4.43-2.58a1.5,1.5,0,0,0-1.37,0Z" transform="translate(-60.75 -76.43)"/></g><g class="cls-2"><g class="cls-2"><g class="cls-48"><g class="cls-2"><polyline class="cls-20" points="119.52 158.87 119.53 159.99 119.53 160 119.52 158.88 119.52 158.87"/><path class="cls-21" d="M180.27,235.31v.06a.13.13,0,0,0,0-.06" transform="translate(-60.75 -76.43)"/><path class="cls-22" d="M180.28,235.37v1.12s0,0,0,0v-1.12l0,0" transform="translate(-60.75 -76.43)"/><path class="cls-23" d="M180.3,235.42v1.12l0,.06v-1.12a.14.14,0,0,1,0-.06" transform="translate(-60.75 -76.43)"/><path class="cls-24" d="M180.32,235.48v1.12l0,.05v-1.12l0-.05" transform="translate(-60.75 -76.43)"/><path class="cls-25" d="M180.36,235.53v1.12l.06.07V235.6l-.06-.07" transform="translate(-60.75 -76.43)"/><path class="cls-26" d="M180.42,235.6v1.12l.12.08v-1.12a.36.36,0,0,1-.12-.08" transform="translate(-60.75 -76.43)"/><polyline class="cls-27" points="119.79 159.25 119.79 160.37 119.8 160.38 119.8 159.26 119.79 159.25"/></g></g></g><g class="cls-2"><g class="cls-49"><g class="cls-2"><path class="cls-29" d="M190.83,235.69v1.12a.48.48,0,0,0,.29-.4v-1.12a.5.5,0,0,1-.29.4" transform="translate(-60.75 -76.43)"/></g></g></g><polygon class="cls-30" points="119.8 159.26 119.8 160.38 124.24 162.96 124.23 161.84 119.8 159.26"/><polygon class="cls-31" points="125.61 161.84 125.62 162.96 130.08 160.38 130.08 159.26 125.61 161.84"/><g class="cls-2"><g class="cls-50"><g class="cls-2"><path class="cls-27" d="M185,238.27v1.12a.78.78,0,0,0,.21.09v-1.12a.85.85,0,0,1-.22-.09" transform="translate(-60.75 -76.43)"/><path class="cls-26" d="M185.2,238.36v1.12l.19.05v-1.12l-.18,0" transform="translate(-60.75 -76.43)"/><path class="cls-25" d="M185.38,238.41v1.12h.12v-1.12h-.13" transform="translate(-60.75 -76.43)"/><path class="cls-24" d="M185.51,238.42v1.12h.11v-1.12h-.11" transform="translate(-60.75 -76.43)"/><path class="cls-23" d="M185.62,238.43v1.12h.1v-1.12h-.1" transform="translate(-60.75 -76.43)"/><path class="cls-22" d="M185.72,238.43v1.12h.1v-1.12h-.09" transform="translate(-60.75 -76.43)"/><path class="cls-21" d="M185.81,238.43v1.12h.09v-1.12h-.1" transform="translate(-60.75 -76.43)"/><path class="cls-20" d="M185.91,238.42v1.12l.1,0V238.4l-.1,0" transform="translate(-60.75 -76.43)"/><path class="cls-33" d="M186,238.4v1.12l.1,0v-1.12l-.1,0" transform="translate(-60.75 -76.43)"/><path class="cls-34" d="M186.11,238.37v1.12l.12,0v-1.12l-.12,0" transform="translate(-60.75 -76.43)"/><path class="cls-29" d="M186.23,238.33v1.12l.14-.06v-1.12a.84.84,0,0,1-.14.06" transform="translate(-60.75 -76.43)"/></g></g></g><path class="cls-51" d="M180.56,234.9a.42.42,0,0,0,0,.79l4.43,2.58a1.55,1.55,0,0,0,1.39,0l4.46-2.58a.42.42,0,0,0,0-.8l-4.43-2.58a1.54,1.54,0,0,0-1.37,0Z" transform="translate(-60.75 -76.43)"/></g><g class="cls-2"><g class="cls-2"><g class="cls-52"><g class="cls-2"><polyline class="cls-20" points="110.75 163.94 110.76 165.06 110.76 165.06 110.75 163.94 110.75 163.94"/><path class="cls-21" d="M171.5,240.37v.06a.13.13,0,0,0,0-.06" transform="translate(-60.75 -76.43)"/><path class="cls-22" d="M171.51,240.43v1.12s0,0,0,0v-1.12a.08.08,0,0,1,0,0" transform="translate(-60.75 -76.43)"/><path class="cls-23" d="M171.53,240.48v1.12l0,.06v-1.12a.14.14,0,0,1,0-.06" transform="translate(-60.75 -76.43)"/><path class="cls-24" d="M171.55,240.54v1.12l0,.06V240.6l0-.06" transform="translate(-60.75 -76.43)"/><path class="cls-25" d="M171.59,240.6v1.12l.06.06v-1.12l-.06-.06" transform="translate(-60.75 -76.43)"/><path class="cls-26" d="M171.65,240.66v1.12l.12.09v-1.12l-.12-.09" transform="translate(-60.75 -76.43)"/><polyline class="cls-27" points="111.02 164.32 111.02 165.44 111.03 165.44 111.03 164.32 111.02 164.32"/></g></g></g><g class="cls-2"><g class="cls-53"><g class="cls-2"><path class="cls-29" d="M182.06,240.75v1.12a.47.47,0,0,0,.29-.4v-1.12a.49.49,0,0,1-.29.4" transform="translate(-60.75 -76.43)"/></g></g></g><polygon class="cls-30" points="111.03 164.32 111.03 165.44 115.47 168.02 115.46 166.9 111.03 164.32"/><polygon class="cls-31" points="116.84 166.9 116.85 168.02 121.31 165.44 121.31 164.32 116.84 166.9"/><g class="cls-2"><g class="cls-54"><g class="cls-2"><path class="cls-27" d="M176.21,243.33v1.12a.67.67,0,0,0,.21.09v-1.11l-.22-.1" transform="translate(-60.75 -76.43)"/><path class="cls-26" d="M176.43,243.43v1.11l.19.05v-1.12l-.18,0" transform="translate(-60.75 -76.43)"/><path class="cls-25" d="M176.61,243.47v1.12l.12,0v-1.12l-.13,0" transform="translate(-60.75 -76.43)"/><path class="cls-24" d="M176.74,243.49v1.12h.11V243.5h-.11" transform="translate(-60.75 -76.43)"/><path class="cls-23" d="M176.85,243.5v1.11h.1V243.5h-.1" transform="translate(-60.75 -76.43)"/><path class="cls-22" d="M177,243.5v1.12h.1v-1.12H177" transform="translate(-60.75 -76.43)"/><path class="cls-21" d="M177,243.49v1.12h.09v-1.12H177" transform="translate(-60.75 -76.43)"/><path class="cls-20" d="M177.14,243.48v1.12l.1,0v-1.12l-.1,0" transform="translate(-60.75 -76.43)"/><path class="cls-33" d="M177.24,243.46v1.12l.1,0v-1.12l-.1,0" transform="translate(-60.75 -76.43)"/><path class="cls-34" d="M177.34,243.44v1.12l.12,0V243.4l-.12,0" transform="translate(-60.75 -76.43)"/><path class="cls-29" d="M177.46,243.4v1.12l.14-.07v-1.12l-.14.07" transform="translate(-60.75 -76.43)"/></g></g></g><path class="cls-55" d="M171.79,240c-.37.22-.38.58,0,.79l4.43,2.58a1.55,1.55,0,0,0,1.39,0l4.46-2.58c.39-.22.39-.57,0-.8l-4.43-2.57a1.5,1.5,0,0,0-1.37,0Z" transform="translate(-60.75 -76.43)"/></g><g class="cls-2"><g class="cls-2"><g class="cls-56"><g class="cls-2"><polyline class="cls-20" points="163.15 143.58 163.16 144.7 163.16 144.71 163.15 143.59 163.15 143.58"/><path class="cls-21" d="M223.9,220v.06s0,0,0-.06" transform="translate(-60.75 -76.43)"/><path class="cls-22" d="M223.91,220.08v1.12l0,.05v-1.12s0,0,0,0" transform="translate(-60.75 -76.43)"/><path class="cls-23" d="M223.93,220.13v1.12l0,.06v-1.12a.14.14,0,0,1,0-.06" transform="translate(-60.75 -76.43)"/><path class="cls-24" d="M224,220.19v1.12l0,.06v-1.12l0-.06" transform="translate(-60.75 -76.43)"/><path class="cls-25" d="M224,220.25v1.12l.06.06v-1.12l-.06-.06" transform="translate(-60.75 -76.43)"/><path class="cls-26" d="M224.05,220.31v1.12l.13.09V220.4l-.12-.09" transform="translate(-60.75 -76.43)"/><path class="cls-27" d="M224.17,220.4v1.12h0v-1.12h0" transform="translate(-60.75 -76.43)"/></g></g></g><g class="cls-2"><g class="cls-57"><g class="cls-2"><path class="cls-29" d="M234.47,220.41v1.12a.5.5,0,0,0,.29-.4V220a.49.49,0,0,1-.28.4" transform="translate(-60.75 -76.43)"/></g></g></g><polygon class="cls-30" points="163.44 143.98 163.44 145.1 167.87 147.68 167.87 146.56 163.44 143.98"/><polygon class="cls-31" points="169.25 146.56 169.25 147.68 173.72 145.1 173.72 143.98 169.25 146.56"/><g class="cls-2"><g class="cls-58"><g class="cls-2"><path class="cls-27" d="M228.62,223v1.12l.21.09v-1.12l-.21-.09" transform="translate(-60.75 -76.43)"/><path class="cls-26" d="M228.83,223.08v1.12l.19,0v-1.12l-.18,0" transform="translate(-60.75 -76.43)"/><path class="cls-25" d="M229,223.12v1.12l.12,0v-1.12l-.13,0" transform="translate(-60.75 -76.43)"/><path class="cls-24" d="M229.14,223.14v1.12h.11v-1.12h-.11" transform="translate(-60.75 -76.43)"/><path class="cls-23" d="M229.25,223.15v1.12h.11v-1.12h-.1" transform="translate(-60.75 -76.43)"/><path class="cls-22" d="M229.35,223.15v1.12h.1v-1.12h-.1" transform="translate(-60.75 -76.43)"/><path class="cls-21" d="M229.45,223.14v1.12h.09v-1.12h-.1" transform="translate(-60.75 -76.43)"/><path class="cls-20" d="M229.55,223.13v1.12h.1v-1.12h-.1" transform="translate(-60.75 -76.43)"/><path class="cls-33" d="M229.65,223.12v1.12l.1,0v-1.12l-.1,0" transform="translate(-60.75 -76.43)"/><path class="cls-34" d="M229.75,223.09v1.12l.12,0v-1.12l-.12,0" transform="translate(-60.75 -76.43)"/><path class="cls-29" d="M229.87,223.05v1.12l.14-.06V223l-.13.06" transform="translate(-60.75 -76.43)"/></g></g></g><path class="cls-59" d="M224.19,219.61c-.38.22-.39.58,0,.8l4.43,2.58a1.59,1.59,0,0,0,1.38,0l4.47-2.58a.42.42,0,0,0,0-.8L230,217a1.55,1.55,0,0,0-1.39,0Z" transform="translate(-60.75 -76.43)"/></g><g class="cls-2"><g class="cls-2"><g class="cls-60"><g class="cls-2"><polyline class="cls-20" points="172.03 148.75 172.03 149.87 172.03 149.87 172.03 148.75 172.03 148.75"/><path class="cls-21" d="M232.78,225.18v1.12s0,0,0,.06v-1.12a.13.13,0,0,1,0-.06" transform="translate(-60.75 -76.43)"/><path class="cls-22" d="M232.79,225.24v1.12a.08.08,0,0,0,0,0v-1.12a.43.43,0,0,1,0,0" transform="translate(-60.75 -76.43)"/><path class="cls-23" d="M232.8,225.29v1.12a.14.14,0,0,0,0,.06v-1.12l0-.06" transform="translate(-60.75 -76.43)"/><path class="cls-24" d="M232.83,225.35v1.12l0,.06v-1.12a.21.21,0,0,1,0-.06" transform="translate(-60.75 -76.43)"/><path class="cls-25" d="M232.87,225.41v1.12l.06.06v-1.12a.17.17,0,0,1-.06-.06" transform="translate(-60.75 -76.43)"/><path class="cls-26" d="M232.93,225.47v1.12l.12.09v-1.12l-.11-.09" transform="translate(-60.75 -76.43)"/><polyline class="cls-27" points="172.29 149.13 172.3 150.25 172.31 150.25 172.31 149.13 172.29 149.13"/></g></g></g><g class="cls-2"><g class="cls-61"><g class="cls-2"><path class="cls-29" d="M243.34,225.56v1.12a.49.49,0,0,0,.29-.4v-1.12a.49.49,0,0,1-.29.4" transform="translate(-60.75 -76.43)"/></g></g></g><polygon class="cls-30" points="172.31 149.13 172.31 150.25 176.74 152.83 176.74 151.71 172.31 149.13"/><polygon class="cls-31" points="178.12 151.71 178.12 152.83 182.59 150.25 182.59 149.13 178.12 151.71"/><g class="cls-2"><g class="cls-62"><g class="cls-2"><path class="cls-27" d="M237.49,228.14v1.12a.85.85,0,0,0,.22.09v-1.12a1,1,0,0,1-.21-.09" transform="translate(-60.75 -76.43)"/><path class="cls-26" d="M237.7,228.23v1.12l.18.05v-1.12l-.19-.05" transform="translate(-60.75 -76.43)"/><path class="cls-25" d="M237.89,228.28v1.12l.13,0V228.3l-.12,0" transform="translate(-60.75 -76.43)"/><path class="cls-24" d="M238,228.3v1.12h.1v-1.12H238" transform="translate(-60.75 -76.43)"/><path class="cls-23" d="M238.12,228.31v1.12h.11v-1.12h-.1" transform="translate(-60.75 -76.43)"/><path class="cls-22" d="M238.22,228.31v1.12h.09V228.3h-.1" transform="translate(-60.75 -76.43)"/><path class="cls-21" d="M238.32,228.3v1.12h.1v-1.12h-.09" transform="translate(-60.75 -76.43)"/><path class="cls-20" d="M238.41,228.29v1.12l.1,0v-1.12l-.1,0" transform="translate(-60.75 -76.43)"/><path class="cls-33" d="M238.51,228.27v1.12l.1,0v-1.12l-.1,0" transform="translate(-60.75 -76.43)"/><path class="cls-34" d="M238.61,228.25v1.12l.12,0v-1.12l-.12,0" transform="translate(-60.75 -76.43)"/><path class="cls-29" d="M238.73,228.21v1.12l.14-.07v-1.12l-.14.07" transform="translate(-60.75 -76.43)"/></g></g></g><path class="cls-63" d="M233.07,224.77c-.38.22-.39.58,0,.79l4.43,2.58a1.53,1.53,0,0,0,1.38,0l4.47-2.58c.38-.22.38-.57,0-.8l-4.43-2.57a1.53,1.53,0,0,0-1.38,0Z" transform="translate(-60.75 -76.43)"/></g><g class="cls-2"><g class="cls-2"><g class="cls-64"><g class="cls-2"><polyline class="cls-20" points="154.38 148.65 154.38 149.77 154.38 149.78 154.38 148.66 154.38 148.65"/><path class="cls-21" d="M215.13,225.08v.06s0,0,0-.06" transform="translate(-60.75 -76.43)"/><path class="cls-22" d="M215.14,225.14v1.12s0,0,0,.06V225.2a.14.14,0,0,1,0-.06" transform="translate(-60.75 -76.43)"/><path class="cls-23" d="M215.16,225.2v1.12s0,0,0,.05v-1.12a.17.17,0,0,1,0-.05" transform="translate(-60.75 -76.43)"/><path class="cls-24" d="M215.18,225.25v1.12l0,.06v-1.12l0-.06" transform="translate(-60.75 -76.43)"/><path class="cls-25" d="M215.22,225.31v1.12l.06.06v-1.12l-.06-.06" transform="translate(-60.75 -76.43)"/><path class="cls-26" d="M215.28,225.37v1.12l.13.1v-1.12l-.12-.1" transform="translate(-60.75 -76.43)"/><path class="cls-27" d="M215.4,225.47v1.12h0v-1.12h0" transform="translate(-60.75 -76.43)"/></g></g></g><g class="cls-2"><g class="cls-65"><g class="cls-2"><path class="cls-29" d="M225.7,225.47v1.12a.49.49,0,0,0,.29-.4v-1.12a.47.47,0,0,1-.28.4" transform="translate(-60.75 -76.43)"/></g></g></g><polygon class="cls-30" points="154.66 149.04 154.67 150.16 159.1 152.74 159.1 151.62 154.66 149.04"/><polygon class="cls-31" points="160.48 151.62 160.48 152.74 164.95 150.16 164.94 149.04 160.48 151.62"/><g class="cls-2"><g class="cls-66"><g class="cls-2"><path class="cls-27" d="M219.85,228.05v1.12a1,1,0,0,0,.21.09v-1.12a.67.67,0,0,1-.21-.09" transform="translate(-60.75 -76.43)"/><path class="cls-26" d="M220.06,228.14v1.12l.19.05v-1.12l-.18-.05" transform="translate(-60.75 -76.43)"/><path class="cls-25" d="M220.24,228.19v1.12h.12V228.2h-.13" transform="translate(-60.75 -76.43)"/><path class="cls-24" d="M220.37,228.2v1.12h.11v-1.12h-.11" transform="translate(-60.75 -76.43)"/><path class="cls-23" d="M220.48,228.21v1.12h.11v-1.12h-.1" transform="translate(-60.75 -76.43)"/><path class="cls-22" d="M220.58,228.21v1.12h.1v-1.12h-.1" transform="translate(-60.75 -76.43)"/><path class="cls-21" d="M220.68,228.21v1.12h.09V228.2h-.1" transform="translate(-60.75 -76.43)"/><path class="cls-20" d="M220.78,228.2v1.12l.1,0v-1.12l-.1,0" transform="translate(-60.75 -76.43)"/><path class="cls-33" d="M220.88,228.18v1.12l.1,0v-1.12l-.1,0" transform="translate(-60.75 -76.43)"/><path class="cls-34" d="M221,228.15v1.12l.12,0v-1.11l-.12,0" transform="translate(-60.75 -76.43)"/><path class="cls-29" d="M221.1,228.12v1.11a.84.84,0,0,0,.14-.06v-1.12l-.13.07" transform="translate(-60.75 -76.43)"/></g></g></g><path class="cls-67" d="M215.42,224.67c-.38.22-.39.58,0,.8l4.43,2.58a1.53,1.53,0,0,0,1.38,0l4.47-2.58a.42.42,0,0,0,0-.8l-4.43-2.57a1.49,1.49,0,0,0-1.39,0Z" transform="translate(-60.75 -76.43)"/></g><g class="cls-2"><g class="cls-2"><g class="cls-68"><g class="cls-2"><polyline class="cls-20" points="145.61 153.71 145.62 154.83 145.62 154.84 145.61 153.72 145.61 153.71"/><path class="cls-21" d="M206.36,230.15v0a.43.43,0,0,1,0,0" transform="translate(-60.75 -76.43)"/><path class="cls-22" d="M206.37,230.2v1.12s0,0,0,.06v-1.12a.14.14,0,0,1,0-.06" transform="translate(-60.75 -76.43)"/><path class="cls-23" d="M206.39,230.26v1.12s0,0,0,.05v-1.12a.08.08,0,0,1,0-.05" transform="translate(-60.75 -76.43)"/><path class="cls-24" d="M206.41,230.31v1.12a.21.21,0,0,1,0,.06v-1.12l0-.06" transform="translate(-60.75 -76.43)"/><path class="cls-25" d="M206.45,230.37v1.12l.06.07v-1.12l-.06-.07" transform="translate(-60.75 -76.43)"/><path class="cls-26" d="M206.51,230.44v1.12l.13.09v-1.12l-.12-.09" transform="translate(-60.75 -76.43)"/><path class="cls-27" d="M206.63,230.53v1.12h0v-1.12h0" transform="translate(-60.75 -76.43)"/></g></g></g><g class="cls-2"><g class="cls-69"><g class="cls-2"><path class="cls-29" d="M216.93,230.54v1.12a.51.51,0,0,0,.29-.41v-1.12a.5.5,0,0,1-.28.41" transform="translate(-60.75 -76.43)"/></g></g></g><polygon class="cls-30" points="145.9 154.11 145.9 155.23 150.33 157.8 150.33 156.68 145.9 154.11"/><polygon class="cls-31" points="151.71 156.68 151.71 157.8 156.18 155.23 156.18 154.11 151.71 156.68"/><g class="cls-2"><g class="cls-70"><g class="cls-2"><path class="cls-27" d="M211.08,233.11v1.12a1,1,0,0,0,.21.09V233.2a.67.67,0,0,1-.21-.09" transform="translate(-60.75 -76.43)"/><path class="cls-26" d="M211.29,233.2v1.12l.19.05v-1.12l-.18-.05" transform="translate(-60.75 -76.43)"/><path class="cls-25" d="M211.47,233.25v1.12l.12,0v-1.12l-.13,0" transform="translate(-60.75 -76.43)"/><path class="cls-24" d="M211.6,233.27v1.12h.11v-1.12h-.11" transform="translate(-60.75 -76.43)"/><path class="cls-23" d="M211.71,233.28v1.12h.11v-1.12h-.1" transform="translate(-60.75 -76.43)"/><path class="cls-22" d="M211.81,233.28v1.12h.1v-1.12h-.1" transform="translate(-60.75 -76.43)"/><path class="cls-21" d="M211.91,233.27v1.12H212v-1.12h-.1" transform="translate(-60.75 -76.43)"/><path class="cls-20" d="M212,233.26v1.12l.1,0v-1.12l-.1,0" transform="translate(-60.75 -76.43)"/><path class="cls-33" d="M212.11,233.24v1.12l.1,0v-1.12l-.1,0" transform="translate(-60.75 -76.43)"/><path class="cls-34" d="M212.21,233.22v1.12l.12,0v-1.12l-.12,0" transform="translate(-60.75 -76.43)"/><path class="cls-29" d="M212.33,233.18v1.12l.14-.07v-1.12l-.13.07" transform="translate(-60.75 -76.43)"/></g></g></g><path class="cls-71" d="M206.65,229.74c-.38.21-.39.57,0,.8l4.43,2.57a1.53,1.53,0,0,0,1.38,0l4.47-2.57c.38-.23.38-.59,0-.8l-4.43-2.58a1.55,1.55,0,0,0-1.39,0Z" transform="translate(-60.75 -76.43)"/></g><g class="cls-2"><g class="cls-2"><g class="cls-72"><g class="cls-2"><polyline class="cls-20" points="136.84 158.77 136.84 159.89 136.84 159.9 136.84 158.78 136.84 158.77"/><path class="cls-21" d="M197.59,235.21v.06s0,0,0-.06" transform="translate(-60.75 -76.43)"/><path class="cls-22" d="M197.6,235.27v1.12l0,.05v-1.12s0,0,0,0" transform="translate(-60.75 -76.43)"/><path class="cls-23" d="M197.62,235.32v1.12l0,.06v-1.12a.14.14,0,0,1,0-.06" transform="translate(-60.75 -76.43)"/><path class="cls-24" d="M197.64,235.38v1.12l0,.06v-1.12l0-.06" transform="translate(-60.75 -76.43)"/><path class="cls-25" d="M197.68,235.44v1.12l.06.06V235.5l-.06-.06" transform="translate(-60.75 -76.43)"/><path class="cls-26" d="M197.74,235.5v1.12l.13.09v-1.12l-.12-.09" transform="translate(-60.75 -76.43)"/><path class="cls-27" d="M197.86,235.59v1.12h0V235.6h0" transform="translate(-60.75 -76.43)"/></g></g></g><g class="cls-2"><g class="cls-73"><g class="cls-2"><path class="cls-29" d="M208.16,235.6v1.12a.5.5,0,0,0,.29-.4V235.2a.49.49,0,0,1-.28.4" transform="translate(-60.75 -76.43)"/></g></g></g><polygon class="cls-30" points="137.13 159.17 137.13 160.29 141.56 162.87 141.56 161.75 137.13 159.17"/><polygon class="cls-31" points="142.94 161.75 142.94 162.87 147.41 160.29 147.41 159.17 142.94 161.75"/><g class="cls-2"><g class="cls-74"><g class="cls-2"><path class="cls-27" d="M202.31,238.18v1.12l.21.09v-1.12l-.21-.09" transform="translate(-60.75 -76.43)"/><path class="cls-26" d="M202.52,238.27v1.12l.19,0v-1.12l-.18,0" transform="translate(-60.75 -76.43)"/><path class="cls-25" d="M202.7,238.31v1.12l.12,0v-1.12l-.13,0" transform="translate(-60.75 -76.43)"/><path class="cls-24" d="M202.83,238.33v1.12h.11v-1.12h-.11" transform="translate(-60.75 -76.43)"/><path class="cls-23" d="M202.94,238.34v1.12h.11v-1.12h-.1" transform="translate(-60.75 -76.43)"/><path class="cls-22" d="M203,238.34v1.12h.1v-1.12H203" transform="translate(-60.75 -76.43)"/><path class="cls-21" d="M203.14,238.33v1.12h.09v-1.12h-.1" transform="translate(-60.75 -76.43)"/><path class="cls-20" d="M203.24,238.32v1.12h.1v-1.12h-.1" transform="translate(-60.75 -76.43)"/><path class="cls-33" d="M203.34,238.31v1.12l.1,0v-1.12l-.1,0" transform="translate(-60.75 -76.43)"/><path class="cls-34" d="M203.44,238.28v1.12l.12,0v-1.12l-.12,0" transform="translate(-60.75 -76.43)"/><path class="cls-29" d="M203.56,238.24v1.12l.14-.06v-1.12l-.13.06" transform="translate(-60.75 -76.43)"/></g></g></g><path class="cls-75" d="M197.88,234.8c-.38.22-.39.58,0,.8l4.43,2.58a1.59,1.59,0,0,0,1.38,0l4.47-2.58a.42.42,0,0,0,0-.8l-4.43-2.58a1.55,1.55,0,0,0-1.39,0Z" transform="translate(-60.75 -76.43)"/></g><g class="cls-2"><g class="cls-2"><g class="cls-76"><g class="cls-2"><polyline class="cls-20" points="128.07 163.84 128.07 164.96 128.07 164.97 128.07 163.85 128.07 163.84"/><path class="cls-21" d="M188.82,240.27v.06s0,0,0-.06" transform="translate(-60.75 -76.43)"/><path class="cls-22" d="M188.83,240.33v1.12s0,0,0,.06v-1.12a.14.14,0,0,1,0-.06" transform="translate(-60.75 -76.43)"/><path class="cls-23" d="M188.85,240.39v1.12s0,0,0,.05v-1.12a.17.17,0,0,1,0-.05" transform="translate(-60.75 -76.43)"/><path class="cls-24" d="M188.87,240.44v1.12l0,.06V240.5l0-.06" transform="translate(-60.75 -76.43)"/><path class="cls-25" d="M188.91,240.5v1.12l.06.06v-1.12l-.06-.06" transform="translate(-60.75 -76.43)"/><path class="cls-26" d="M189,240.56v1.12l.13.1v-1.12l-.12-.1" transform="translate(-60.75 -76.43)"/><path class="cls-27" d="M189.09,240.66v1.12h0v-1.12h0" transform="translate(-60.75 -76.43)"/></g></g></g><g class="cls-2"><g class="cls-77"><g class="cls-2"><path class="cls-29" d="M199.39,240.66v1.12a.49.49,0,0,0,.29-.4v-1.12a.47.47,0,0,1-.28.4" transform="translate(-60.75 -76.43)"/></g></g></g><polygon class="cls-30" points="128.35 164.23 128.36 165.35 132.79 167.93 132.79 166.81 128.35 164.23"/><polygon class="cls-31" points="134.17 166.81 134.17 167.93 138.64 165.35 138.63 164.23 134.17 166.81"/><g class="cls-2"><g class="cls-78"><g class="cls-2"><path class="cls-27" d="M193.54,243.24v1.12a1,1,0,0,0,.21.09v-1.12a.67.67,0,0,1-.21-.09" transform="translate(-60.75 -76.43)"/><path class="cls-26" d="M193.75,243.33v1.12l.19.05v-1.12l-.18,0" transform="translate(-60.75 -76.43)"/><path class="cls-25" d="M193.93,243.38v1.12h.12v-1.12h-.13" transform="translate(-60.75 -76.43)"/><path class="cls-24" d="M194.06,243.39v1.12h.11V243.4h-.11" transform="translate(-60.75 -76.43)"/><path class="cls-23" d="M194.17,243.4v1.12h.11V243.4h-.1" transform="translate(-60.75 -76.43)"/><path class="cls-22" d="M194.27,243.4v1.12h.1V243.4h-.1" transform="translate(-60.75 -76.43)"/><path class="cls-21" d="M194.37,243.4v1.12h.09v-1.12h-.1" transform="translate(-60.75 -76.43)"/><path class="cls-20" d="M194.47,243.39v1.12l.1,0v-1.12l-.1,0" transform="translate(-60.75 -76.43)"/><path class="cls-33" d="M194.57,243.37v1.12l.1,0v-1.12l-.1,0" transform="translate(-60.75 -76.43)"/><path class="cls-34" d="M194.67,243.34v1.12l.12,0v-1.12l-.12,0" transform="translate(-60.75 -76.43)"/><path class="cls-29" d="M194.79,243.31v1.12l.14-.07v-1.12l-.13.07" transform="translate(-60.75 -76.43)"/></g></g></g><path class="cls-79" d="M189.11,239.86c-.38.22-.39.58,0,.8l4.43,2.58a1.53,1.53,0,0,0,1.38,0l4.47-2.58a.42.42,0,0,0,0-.8L195,237.29a1.49,1.49,0,0,0-1.39,0Z" transform="translate(-60.75 -76.43)"/></g><g class="cls-2"><g class="cls-2"><g class="cls-80"><g class="cls-2"><path class="cls-29" d="M234.73,230.53v1.12a.49.49,0,0,0,.28-.4v-1.12a.5.5,0,0,1-.29.4" transform="translate(-60.75 -76.43)"/></g></g></g><g class="cls-2"><g class="cls-81"><g class="cls-2"><polyline class="cls-20" points="137.11 168.9 137.12 170.02 137.12 170.03 137.11 168.91 137.11 168.9"/><path class="cls-21" d="M197.86,245.34v0a.43.43,0,0,1,0,0" transform="translate(-60.75 -76.43)"/><path class="cls-22" d="M197.87,245.39v1.12s0,0,0,.06v-1.12a.14.14,0,0,1,0-.06" transform="translate(-60.75 -76.43)"/><path class="cls-23" d="M197.89,245.45v1.12l0,.05V245.5a.08.08,0,0,1,0-.05" transform="translate(-60.75 -76.43)"/><path class="cls-24" d="M197.91,245.5v1.12a.21.21,0,0,1,0,.06v-1.12l0-.06" transform="translate(-60.75 -76.43)"/><path class="cls-25" d="M198,245.56v1.12l.06.06v-1.12l-.06-.06" transform="translate(-60.75 -76.43)"/><path class="cls-26" d="M198,245.62v1.12l.12.09v-1.12a.27.27,0,0,1-.12-.09" transform="translate(-60.75 -76.43)"/><path class="cls-27" d="M198.13,245.71v1.12h0v-1.12h0" transform="translate(-60.75 -76.43)"/></g></g></g><polygon class="cls-30" points="137.39 169.29 137.4 170.41 141.83 172.99 141.83 171.87 137.39 169.29"/><polygon class="cls-31" points="143.21 171.87 143.21 172.99 173.99 155.22 173.98 154.1 143.21 171.87"/><g class="cls-2"><g class="cls-82"><g class="cls-2"><path class="cls-27" d="M202.58,248.3v1.12a.85.85,0,0,0,.22.09v-1.12a.73.73,0,0,1-.22-.09" transform="translate(-60.75 -76.43)"/><path class="cls-26" d="M202.8,248.39v1.12l.18.05v-1.12l-.18-.05" transform="translate(-60.75 -76.43)"/><path class="cls-25" d="M203,248.44v1.12l.13,0v-1.12l-.12,0" transform="translate(-60.75 -76.43)"/><path class="cls-24" d="M203.1,248.46v1.12h.1v-1.12h-.11" transform="translate(-60.75 -76.43)"/><path class="cls-23" d="M203.21,248.46v1.12h.1v-1.11h-.1" transform="translate(-60.75 -76.43)"/><path class="cls-22" d="M203.31,248.47v1.11h.1v-1.12h-.09" transform="translate(-60.75 -76.43)"/><path class="cls-21" d="M203.4,248.46v1.12h.09v-1.12h-.1" transform="translate(-60.75 -76.43)"/><path class="cls-20" d="M203.5,248.45v1.12l.1,0v-1.12l-.09,0" transform="translate(-60.75 -76.43)"/><path class="cls-33" d="M203.59,248.43v1.12l.1,0v-1.12l-.11,0" transform="translate(-60.75 -76.43)"/><path class="cls-34" d="M203.7,248.41v1.12l.12,0v-1.12l-.12,0" transform="translate(-60.75 -76.43)"/><path class="cls-29" d="M203.82,248.37v1.12l.14-.07V248.3l-.14.07" transform="translate(-60.75 -76.43)"/></g></g></g><path class="cls-83" d="M198.16,244.93c-.39.22-.39.57,0,.79l4.44,2.58a1.53,1.53,0,0,0,1.38,0l30.77-17.77c.38-.22.39-.58,0-.8l-4.44-2.58a1.54,1.54,0,0,0-1.37,0Z" transform="translate(-60.75 -76.43)"/></g><g class="cls-2"><g class="cls-2"><g class="cls-84"><g class="cls-2"><polyline class="cls-20" points="119.3 168.9 119.31 170.02 119.31 170.03 119.3 168.91 119.3 168.9"/><path class="cls-21" d="M180.05,245.34v0a.43.43,0,0,1,0,0" transform="translate(-60.75 -76.43)"/><path class="cls-22" d="M180.06,245.39v1.12s0,0,0,.06v-1.12a.14.14,0,0,1,0-.06" transform="translate(-60.75 -76.43)"/><path class="cls-23" d="M180.08,245.45v1.12s0,0,0,.05V245.5a.08.08,0,0,1,0-.05" transform="translate(-60.75 -76.43)"/><path class="cls-24" d="M180.1,245.5v1.12a.21.21,0,0,1,0,.06v-1.12l0-.06" transform="translate(-60.75 -76.43)"/><path class="cls-25" d="M180.14,245.56v1.12l.06.07v-1.12l-.06-.07" transform="translate(-60.75 -76.43)"/><path class="cls-26" d="M180.2,245.63v1.12l.13.09v-1.12l-.12-.09" transform="translate(-60.75 -76.43)"/><path class="cls-27" d="M180.32,245.72v1.12h0v-1.12h0" transform="translate(-60.75 -76.43)"/></g></g></g><g class="cls-2"><g class="cls-85"><g class="cls-2"><path class="cls-29" d="M190.62,245.73v1.12a.51.51,0,0,0,.29-.41v-1.12a.5.5,0,0,1-.28.41" transform="translate(-60.75 -76.43)"/></g></g></g><polygon class="cls-30" points="119.58 169.3 119.59 170.42 124.02 172.99 124.02 171.87 119.58 169.3"/><polygon class="cls-31" points="125.4 171.87 125.4 172.99 129.87 170.42 129.87 169.3 125.4 171.87"/><g class="cls-2"><g class="cls-86"><g class="cls-2"><path class="cls-27" d="M184.77,248.3v1.12a1,1,0,0,0,.21.09v-1.12a.67.67,0,0,1-.21-.09" transform="translate(-60.75 -76.43)"/><path class="cls-26" d="M185,248.39v1.12l.19.05v-1.12l-.18-.05" transform="translate(-60.75 -76.43)"/><path class="cls-25" d="M185.16,248.44v1.12l.12,0v-1.12l-.13,0" transform="translate(-60.75 -76.43)"/><path class="cls-24" d="M185.29,248.46v1.12h.11v-1.12h-.11" transform="translate(-60.75 -76.43)"/><path class="cls-23" d="M185.4,248.47v1.12h.11v-1.12h-.1" transform="translate(-60.75 -76.43)"/><path class="cls-22" d="M185.5,248.47v1.12h.1v-1.12h-.1" transform="translate(-60.75 -76.43)"/><path class="cls-21" d="M185.6,248.46v1.12h.09v-1.12h-.1" transform="translate(-60.75 -76.43)"/><path class="cls-20" d="M185.7,248.45v1.12l.1,0v-1.12l-.1,0" transform="translate(-60.75 -76.43)"/><path class="cls-33" d="M185.8,248.43v1.12l.1,0v-1.12l-.1,0" transform="translate(-60.75 -76.43)"/><path class="cls-34" d="M185.9,248.41v1.12l.12,0v-1.12l-.12,0" transform="translate(-60.75 -76.43)"/><path class="cls-29" d="M186,248.37v1.12l.14-.07V248.3l-.13.07" transform="translate(-60.75 -76.43)"/></g></g></g><path class="cls-87" d="M180.34,244.93c-.38.21-.39.57,0,.8l4.43,2.57a1.53,1.53,0,0,0,1.38,0l4.47-2.57c.38-.23.38-.59,0-.8l-4.43-2.58a1.55,1.55,0,0,0-1.39,0Z" transform="translate(-60.75 -76.43)"/></g><g class="cls-2"><g class="cls-2"><g class="cls-88"><g class="cls-2"><polyline class="cls-20" points="128.34 174.15 128.34 175.27 128.34 175.28 128.34 174.16 128.34 174.15"/><path class="cls-21" d="M189.09,250.59v1.12a.07.07,0,0,0,0,0v-1.11a.13.13,0,0,1,0-.06" transform="translate(-60.75 -76.43)"/><path class="cls-22" d="M189.1,250.65v1.11s0,0,0,.06V250.7a.11.11,0,0,1,0,0" transform="translate(-60.75 -76.43)"/><path class="cls-23" d="M189.11,250.7v1.12l0,.06v-1.12l0-.06" transform="translate(-60.75 -76.43)"/><path class="cls-24" d="M189.14,250.76v1.12l0,.05v-1.12l0-.05" transform="translate(-60.75 -76.43)"/><path class="cls-25" d="M189.18,250.81v1.12l.06.07v-1.12a.13.13,0,0,1-.06-.07" transform="translate(-60.75 -76.43)"/><path class="cls-26" d="M189.24,250.88V252l.12.09V251l-.12-.09" transform="translate(-60.75 -76.43)"/><path class="cls-27" d="M189.36,251v1.12h0V251h0" transform="translate(-60.75 -76.43)"/></g></g></g><g class="cls-2"><g class="cls-89"><g class="cls-2"><path class="cls-29" d="M199.65,251v1.12a.51.51,0,0,0,.3-.41v-1.12a.49.49,0,0,1-.29.41" transform="translate(-60.75 -76.43)"/></g></g></g><polygon class="cls-30" points="128.62 174.55 128.62 175.67 133.06 178.25 133.06 177.13 128.62 174.55"/><polygon class="cls-31" points="134.44 177.13 134.44 178.25 138.9 175.67 138.9 174.55 134.44 177.13"/><g class="cls-2"><g class="cls-90"><g class="cls-2"><path class="cls-27" d="M193.81,253.55v1.12a1.36,1.36,0,0,0,.21.1v-1.12a1,1,0,0,1-.21-.1" transform="translate(-60.75 -76.43)"/><path class="cls-26" d="M194,253.65v1.12l.19,0v-1.12l-.18,0" transform="translate(-60.75 -76.43)"/><path class="cls-25" d="M194.2,253.69v1.12l.12,0v-1.12l-.13,0" transform="translate(-60.75 -76.43)"/><path class="cls-24" d="M194.33,253.71v1.12h.11v-1.12h-.11" transform="translate(-60.75 -76.43)"/><path class="cls-23" d="M194.44,253.72v1.12h.1v-1.12h-.1" transform="translate(-60.75 -76.43)"/><path class="cls-22" d="M194.54,253.72v1.12h.1v-1.12h-.09" transform="translate(-60.75 -76.43)"/><path class="cls-21" d="M194.63,253.71v1.12h.09V253.7h-.1" transform="translate(-60.75 -76.43)"/><path class="cls-20" d="M194.73,253.7v1.12h.1v-1.12h-.1" transform="translate(-60.75 -76.43)"/><path class="cls-33" d="M194.83,253.69v1.12l.1,0v-1.12l-.1,0" transform="translate(-60.75 -76.43)"/><path class="cls-34" d="M194.93,253.66v1.12l.12,0v-1.12l-.12,0" transform="translate(-60.75 -76.43)"/><path class="cls-29" d="M195.05,253.62v1.12l.14-.07v-1.12l-.14.07" transform="translate(-60.75 -76.43)"/></g></g></g><path class="cls-91" d="M189.38,250.18a.42.42,0,0,0,0,.8l4.44,2.57a1.5,1.5,0,0,0,1.38,0l4.46-2.57c.39-.23.39-.58,0-.8l-4.44-2.58a1.53,1.53,0,0,0-1.38,0Z" transform="translate(-60.75 -76.43)"/></g><g class="cls-2"><g class="cls-2"><g class="cls-92"><g class="cls-2"><polyline class="cls-20" points="101.98 169 101.99 170.12 101.99 170.13 101.98 169.01 101.98 169"/><path class="cls-21" d="M162.73,245.44v.05a.07.07,0,0,0,0-.05" transform="translate(-60.75 -76.43)"/><path class="cls-22" d="M162.74,245.49v1.12s0,0,0,.06v-1.12a.14.14,0,0,1,0-.06" transform="translate(-60.75 -76.43)"/><path class="cls-23" d="M162.76,245.55v1.12l0,.05V245.6s0,0,0,0" transform="translate(-60.75 -76.43)"/><path class="cls-24" d="M162.78,245.6v1.12l0,.06v-1.12l0-.06" transform="translate(-60.75 -76.43)"/><path class="cls-25" d="M162.82,245.66v1.12l.06.06v-1.12l-.06-.06" transform="translate(-60.75 -76.43)"/><path class="cls-26" d="M162.88,245.72v1.12l.12.09v-1.12l-.12-.09" transform="translate(-60.75 -76.43)"/><polyline class="cls-27" points="102.25 169.38 102.25 170.5 102.26 170.51 102.26 169.39 102.25 169.38"/></g></g></g><g class="cls-2"><g class="cls-93"><g class="cls-2"><path class="cls-29" d="M187.49,254.07v1.12a.5.5,0,0,0,.29-.4v-1.12a.48.48,0,0,1-.29.4" transform="translate(-60.75 -76.43)"/></g></g></g><polygon class="cls-30" points="102.26 169.39 102.26 170.51 120.9 181.34 120.9 180.22 102.26 169.39"/><polygon class="cls-31" points="122.28 180.22 122.28 181.34 126.74 178.76 126.74 177.64 122.28 180.22"/><g class="cls-2"><g class="cls-94"><g class="cls-2"><path class="cls-27" d="M181.65,256.65v1.12l.21.09v-1.12a.67.67,0,0,1-.21-.09" transform="translate(-60.75 -76.43)"/><path class="cls-26" d="M181.86,256.74v1.12l.19.05v-1.12l-.18-.05" transform="translate(-60.75 -76.43)"/><path class="cls-25" d="M182,256.79v1.12h.12V256.8H182" transform="translate(-60.75 -76.43)"/><path class="cls-24" d="M182.17,256.8v1.12h.11v-1.12h-.11" transform="translate(-60.75 -76.43)"/><path class="cls-23" d="M182.28,256.81v1.12h.1v-1.12h-.1" transform="translate(-60.75 -76.43)"/><path class="cls-22" d="M182.38,256.81v1.12h.1v-1.12h-.1" transform="translate(-60.75 -76.43)"/><path class="cls-21" d="M182.48,256.81v1.12h.09V256.8h-.09" transform="translate(-60.75 -76.43)"/><path class="cls-20" d="M182.57,256.8v1.12l.1,0v-1.12l-.1,0" transform="translate(-60.75 -76.43)"/><path class="cls-33" d="M182.67,256.78v1.12l.1,0v-1.12l-.1,0" transform="translate(-60.75 -76.43)"/><path class="cls-34" d="M182.77,256.75v1.12l.12,0v-1.12l-.12,0" transform="translate(-60.75 -76.43)"/><path class="cls-29" d="M182.89,256.71v1.12a.59.59,0,0,0,.14-.06v-1.12a.84.84,0,0,1-.14.06" transform="translate(-60.75 -76.43)"/></g></g></g><path class="cls-95" d="M163,245a.43.43,0,0,0,0,.8l18.64,10.83a1.53,1.53,0,0,0,1.38,0l4.46-2.58c.39-.22.39-.58,0-.8l-18.64-10.83a1.5,1.5,0,0,0-1.37,0Z" transform="translate(-60.75 -76.43)"/></g><path class="cls-96" d="M347.49,385.54s0,0,0,.06a2.78,2.78,0,0,1-.28.54l-.06.1a6.58,6.58,0,0,1-1.23,1.06l-86.4,50.21a6.9,6.9,0,0,1-1.14.5l-.44.14-.58.14c-.23,0-.47.09-.71.12l-.17,0c-.32,0-.65.05-1,.05h-.16c-.32,0-.64,0-1-.05l-.15,0c-.31,0-.62-.09-.93-.16l-.17,0a6.94,6.94,0,0,1-.81-.25l-.14-.05a6.6,6.6,0,0,1-.89-.42l-152-87.73a2.92,2.92,0,0,1-1.71-2.39v3.15a2.92,2.92,0,0,0,1.72,2.4l152,87.73a6,6,0,0,0,.85.4l0,0,.14.05.53.17.28.07.17,0,.16,0,.57.1.2,0h.15l.22,0,.57,0h.59c.22,0,.43,0,.64,0h.07l.18,0,.49-.07.21-.05c.2,0,.39-.1.58-.15s.21,0,.31-.08l.13-.05a6.9,6.9,0,0,0,1.14-.5l86.4-50.22.07,0a3.06,3.06,0,0,0,.29-.21c.14-.1.29-.2.41-.3l0,0q.19-.19.36-.39l.06-.09.06-.09.11-.16a2.41,2.41,0,0,0,.15-.33s0,0,0-.05,0-.05,0-.07l.06-.21c0-.11,0-.22,0-.33v-3.21A2.51,2.51,0,0,1,347.49,385.54Z" transform="translate(-60.75 -76.43)"/><path class="cls-97" d="M345.86,382.54c2.29,1.32,2.3,3.45,0,4.76l-86.4,50.21a9.06,9.06,0,0,1-8.22,0L99.33,349.77c-2.28-1.31-2.29-3.44,0-4.75l86.4-50.21a9,9,0,0,1,8.2,0Z" transform="translate(-60.75 -76.43)"/><path class="cls-98" d="M252.52,335.35c2,1.17,2,3,0,4.2l-76.27,44.32a8,8,0,0,1-7.25,0l-59.45-34.44c-2-1.16-2-3,0-4.19l76.26-44.32a8,8,0,0,1,7.25,0Z" transform="translate(-60.75 -76.43)"/><path class="cls-99" d="M176.29,383.87s-.48,1.93,3.39,4.35,73.56,43.07,73.56,43.07l74-46-3.39-3.39-70.65-37.74L190.33,379Z" transform="translate(-60.75 -76.43)"/><path class="cls-100" d="M176.29,383.87s19.36-6.78,31,1.45S246.46,424,254.21,427.9l73.55-46s-33.87-33.87-50.33-40.65-24.87-1.73-24.87-1.73Z" transform="translate(-60.75 -76.43)"/><path class="cls-101" d="M199.63,357.6a1.18,1.18,0,0,1,0,2.23,4.26,4.26,0,0,1-3.84,0l-46.07-26.6a1.18,1.18,0,0,1,0-2.23,4.26,4.26,0,0,1,3.84,0Z" transform="translate(-60.75 -76.43)"/><path class="cls-101" d="M166.56,346.82a1.18,1.18,0,0,1,0,2.22,4.28,4.28,0,0,1-3.85,0L142.56,337.4a1.18,1.18,0,0,1,0-2.23,4.26,4.26,0,0,1,3.84,0Z" transform="translate(-60.75 -76.43)"/><path class="cls-101" d="M205,343.48a1.17,1.17,0,0,1,0,2.21,4.24,4.24,0,0,1-3.83,0l-36.55-21.1a1.18,1.18,0,0,1,0-2.23,4.28,4.28,0,0,1,3.85,0Z" transform="translate(-60.75 -76.43)"/><path class="cls-101" d="M195.81,329.82c1.05.61,1.08,1.6,0,2.22a4.21,4.21,0,0,1-3.83,0l-20.16-11.64c-1.06-.61-1.09-1.6,0-2.22a4.23,4.23,0,0,1,3.84,0Z" transform="translate(-60.75 -76.43)"/><path class="cls-101" d="M207.11,353.26c1,.61,1.08,1.6,0,2.21a4.2,4.2,0,0,1-3.84,0l-46.07-26.59a1.18,1.18,0,0,1,0-2.23,4.24,4.24,0,0,1,3.83,0Z" transform="translate(-60.75 -76.43)"/><path class="cls-101" d="M228.88,340.6c1.06.61,1.08,1.61,0,2.22a4.26,4.26,0,0,1-3.84,0L179,316.22a1.17,1.17,0,0,1,0-2.22,4.21,4.21,0,0,1,3.83,0Z" transform="translate(-60.75 -76.43)"/><path class="cls-96" d="M401,183.5l-.07,0-.09-.05-.08,0-.09,0-.08,0h0l-.06,0-.09,0-.09,0h-.39l-.12,0h0l-.14,0-.17.08-1.39.81a.91.91,0,0,1,.31-.12h0a1,1,0,0,1,.35,0h0a2.08,2.08,0,0,1,.39.08h0a2.27,2.27,0,0,1,.43.19l38.85,22.44,1.39-.81Z" transform="translate(-60.75 -76.43)"/><path class="cls-96" d="M441.91,209.46v-.1s0-.07,0-.1,0-.07,0-.1,0-.07,0-.11h0a.3.3,0,0,0,0-.1.36.36,0,0,0,0-.11s0-.08,0-.11l0-.11,0-.09h0v0a.42.42,0,0,1,0-.1.36.36,0,0,0,0-.11.42.42,0,0,0,0-.1.49.49,0,0,0,0-.11l0-.07h0v0a.93.93,0,0,0-.05-.1l-.05-.11-.06-.12-.08-.14v0l0,0-.15-.24L441,207l-.09-.13-.08-.1-.08-.09-.08-.09,0,0h0l-.07-.06-.09-.09-.09-.08-.09-.09-.05,0h0l0,0-.09-.07-.09-.07-.09-.06-.09-.05h0l-1.39.81c.14.08.28.18.42.28h0a4.27,4.27,0,0,1,.38.36h0a4.89,4.89,0,0,1,.66.89v0c.09.16.17.32.25.49h0a5.27,5.27,0,0,1,.19.51h0a4.37,4.37,0,0,1,.12.52h0a2.92,2.92,0,0,1,0,.51l-.07,26.55a2.14,2.14,0,0,1-.05.45h0a1.79,1.79,0,0,1-.12.37h0a1,1,0,0,1-.16.24.2.2,0,0,1-.06.07.79.79,0,0,1-.22.19l1.39-.81a1.3,1.3,0,0,0,.23-.18l.05-.08.08-.09.08-.14h0l.05-.1a.36.36,0,0,1,0-.11.43.43,0,0,0,0-.11.09.09,0,0,0,0-.05h0v0a.44.44,0,0,0,0-.1s0-.07,0-.11a.28.28,0,0,1,0-.09v-.11h0l.07-26.55Z" transform="translate(-60.75 -76.43)"/><path class="cls-102" d="M438.43,206.75a4.57,4.57,0,0,1,2.09,3.62l-.07,26.55c0,1.33-.95,1.87-2.11,1.2l-38.85-22.44a4.62,4.62,0,0,1-2.1-3.62l.08-26.55c0-1.33.95-1.87,2.11-1.2Z" transform="translate(-60.75 -76.43)"/><path class="cls-103" d="M436.54,207.18a4.16,4.16,0,0,1,1.89,3.27l-.07,24c0,1.21-.85,1.69-1.9,1.09l-35.09-20.26a4.16,4.16,0,0,1-1.88-3.27l.06-24c0-1.2.86-1.68,1.9-1.08Z" transform="translate(-60.75 -76.43)"/><path class="cls-104" d="M411.46,197v1.16a.88.88,0,0,1-1.32.77l-5.46-3.15a.88.88,0,0,1-.45-.76v-1.16a.89.89,0,0,1,1.33-.77L411,196.2A.89.89,0,0,1,411.46,197Z" transform="translate(-60.75 -76.43)"/><path class="cls-104" d="M428.75,212.61v1.15a.89.89,0,0,1-1.33.77l-22.74-13a.87.87,0,0,1-.45-.76v-1.16a.89.89,0,0,1,1.33-.77l22.74,13A.88.88,0,0,1,428.75,212.61Z" transform="translate(-60.75 -76.43)"/><g class="cls-105"><path class="cls-104" d="M419.37,218.74v1.15a.88.88,0,0,1-1.32.77L404.68,213a.89.89,0,0,1-.44-.77v-1.16a.88.88,0,0,1,1.32-.77L418.93,218A.89.89,0,0,1,419.37,218.74Z" transform="translate(-60.75 -76.43)"/></g><path class="cls-106" d="M425.22,216.34v1.15a.88.88,0,0,1-1.32.77l-19.22-11a.89.89,0,0,1-.44-.77v-1.16a.88.88,0,0,1,1.32-.77l19.22,11A.89.89,0,0,1,425.22,216.34Z" transform="translate(-60.75 -76.43)"/><polygon class="cls-107" points="235.4 35.65 234.09 77.41 205.25 60.76 205.37 18.54 235.4 35.65"/><polygon class="cls-103" points="198.61 24.14 206.01 20.03 235.4 36.78 229.96 43.87 199.33 37.19 198.61 24.14"/><polygon class="cls-107" points="225.83 41.02 225.71 83.24 196.04 66.11 196.16 23.89 225.83 41.02"/><path class="cls-108" d="M292,117.45a4.45,4.45,0,0,1-.54.25l-.14.06-.36.1-.38.1-.46.08-.12,0q-.31,0-.63,0h-.11q-.32,0-.63,0h-.09a6,6,0,0,1-.61-.11l-.11,0a4.68,4.68,0,0,1-.53-.17l-.09,0a4.43,4.43,0,0,1-.58-.27l-.12,42.22a4,4,0,0,0,.55.26h0l.09,0,.34.11.19,0,.11,0,.09,0,.38.07h.23l.14,0,.37,0h.39l.43,0H290l.32,0,.14,0,.38-.1.2-.05.16-.06.15-.05.53-.25,5.93-3.46.05,0,.1-.07.14-.09.1-.08.12-.1,0,0,0,0,.16-.18,0,0,0,0a.55.55,0,0,0,.09-.14.1.1,0,0,0,0-.05,0,0,0,0,0,0,0,.67.67,0,0,0,.06-.12l0-.07v0l0-.12a.19.19,0,0,0,0-.07v0s0-.08,0-.12,0-.05,0-.08v0l.12-42.22s0,.07,0,.11,0,.08,0,.12l0,.1,0,.11,0,.09a.67.67,0,0,1-.06.12.41.41,0,0,1-.05.09.51.51,0,0,1-.09.13l-.06.08-.16.17-.06.06-.12.1-.1.08-.14.09-.15.1" transform="translate(-60.75 -76.43)"/><path class="cls-109" d="M297.88,110.88c1.49.86,1.49,2.26,0,3.12L292,117.45a5.93,5.93,0,0,1-5.38,0l-29.67-17.13L259,99.11l28.84,16.65a3.75,3.75,0,0,0,3.39,0l3.75-2.18c.93-.54.92-1.42,0-2L266.12,95l2.09-1.22Z" transform="translate(-60.75 -76.43)"/><polygon class="cls-109" points="230.61 45.71 230.7 77.57 235.67 74.7 235.58 42.84 230.61 45.71"/><polygon class="cls-110" points="232.08 49.61 230.78 91.37 201.93 74.72 202.05 32.5 232.08 49.61"/><polygon class="cls-103" points="195.3 38.1 202.69 33.99 232.08 50.74 226.64 57.83 196.01 51.15 195.3 38.1"/><polygon class="cls-111" points="222.51 54.99 222.39 97.2 192.72 80.07 192.84 37.86 222.51 54.99"/><path class="cls-112" d="M288.64,131.41a3.65,3.65,0,0,1-.53.25l-.15.06-.36.11c-.12,0-.25.07-.38.09a3.4,3.4,0,0,1-.46.08l-.11,0-.64,0h-.1l-.64,0h-.09a6,6,0,0,1-.61-.1l-.11,0a4.64,4.64,0,0,1-.53-.16l-.09,0a3.88,3.88,0,0,1-.58-.28l-.12,42.22a3.47,3.47,0,0,0,.55.26h0l.09,0,.34.11.19,0,.11,0,.1,0,.37.06.14,0h.23l.38,0h.39l.42,0h0l.11,0,.32,0,.14,0,.38-.09.2-.05.16-.06.15-.06a3.65,3.65,0,0,0,.53-.25l5.94-3.45,0,0,.1-.06.14-.1a.39.39,0,0,0,.1-.08l.12-.1,0,0a.08.08,0,0,0,0,0,.85.85,0,0,0,.16-.17l0,0,0,0,.09-.13,0-.06,0,0a1.17,1.17,0,0,0,.05-.11s0,0,0-.07v0l0-.11,0-.08v0a.49.49,0,0,0,0-.12s0-.05,0-.08v0l.12-42.22s0,.08,0,.12a.49.49,0,0,1,0,.12l0,.09,0,.12a.36.36,0,0,1,0,.09l-.05.12a.35.35,0,0,0-.05.08l-.09.14-.07.07a1.29,1.29,0,0,1-.16.18l-.06.06-.12.09-.1.09-.14.09-.14.09" transform="translate(-60.75 -76.43)"/><path class="cls-113" d="M294.56,124.85c1.49.86,1.49,2.25,0,3.11l-5.94,3.45a5.93,5.93,0,0,1-5.38,0l-29.67-17.12,2.09-1.22,28.84,16.65a3.69,3.69,0,0,0,3.39,0l3.75-2.17a1,1,0,0,0,0-2L262.8,108.93l2.09-1.21Z" transform="translate(-60.75 -76.43)"/><polygon class="cls-111" points="227.29 59.67 227.38 91.53 232.35 88.67 232.26 56.8 227.29 59.67"/><polygon class="cls-114" points="205.34 50.86 204.03 92.62 175.19 75.97 175.31 33.76 205.34 50.86"/><polygon class="cls-103" points="168.55 39.35 175.95 35.24 205.34 51.99 199.89 59.08 169.27 52.4 168.55 39.35"/><polygon class="cls-115" points="195.77 56.24 195.65 98.45 165.98 81.32 166.1 39.11 195.77 56.24"/><path class="cls-116" d="M261.89,132.66a3.73,3.73,0,0,1-.53.26l-.14.05-.36.11-.38.1-.46.08h-.12c-.21,0-.42,0-.64,0h-.1c-.21,0-.42,0-.63,0h-.09a6.17,6.17,0,0,1-.62-.1l-.1,0a4.64,4.64,0,0,1-.53-.16l-.09,0a4.43,4.43,0,0,1-.58-.27l-.12,42.21a3.36,3.36,0,0,0,.54.26l0,0,.09,0,.34.11.19,0,.11,0,.09,0,.38.06.14,0h.23l.37,0h.39l.42,0h0l.12,0,.32,0,.14,0c.13,0,.25-.06.38-.09l.2-.05.16-.06.14-.06a2.87,2.87,0,0,0,.53-.25l5.94-3.45.05,0,.1-.06.13-.09.11-.09.12-.09,0,0,0-.05a1.29,1.29,0,0,0,.16-.17s0,0,0,0,0,0,0,0l.09-.13,0-.05s0,0,0,0l.06-.12,0-.07v0l0-.11a.19.19,0,0,0,0-.08v0s0-.08,0-.12,0-.05,0-.07v0l.12-42.21s0,.07,0,.11,0,.08,0,.12a.29.29,0,0,1,0,.09l0,.12,0,.09-.06.12a.22.22,0,0,1-.05.08l-.09.14-.06.07-.16.18-.06.06-.12.1-.11.08-.13.09-.15.09" transform="translate(-60.75 -76.43)"/><path class="cls-117" d="M267.82,126.1c1.49.86,1.49,2.25,0,3.11l-5.94,3.45a5.91,5.91,0,0,1-5.37,0l-29.67-17.13,2.09-1.22L257.78,131a3.75,3.75,0,0,0,3.39,0l3.74-2.18a1,1,0,0,0,0-2l-28.84-16.66,2.09-1.21Z" transform="translate(-60.75 -76.43)"/><polygon class="cls-115" points="200.55 60.92 200.64 92.79 205.61 89.92 205.52 58.05 200.55 60.92"/><ellipse class="cls-118" cx="48.39" cy="311.68" rx="23.47" ry="14.91"/><path class="cls-119" d="M113.91,382.3a7.31,7.31,0,0,0,2.68,2.39c1.81.95,2.86,1.91,2.86,2.67s-1.15,1.14-2.77,1.05S114.1,386.5,113,386s-2.48-.57-2.86-1.14,0-2.86,0-2.86Z" transform="translate(-60.75 -76.43)"/><path class="cls-119" d="M101.94,386.5a3.12,3.12,0,0,0,.91,1.91c.76.57,1.33,1.52,2.57,2a3,3,0,0,1,2,2.2c0,.66-2.68,1.14-4.2.57s-3.15-2.67-3.82-3a2.39,2.39,0,0,1-1.24-1.53,11.74,11.74,0,0,1,.29-2.29Z" transform="translate(-60.75 -76.43)"/><path class="cls-119" d="M94,340.61s.48,6.74,1.27,11.18,2,33.81,2.94,35,2.42,1,3.73-.23,2.53-37.47,2.53-37.47l4-8.24Z" transform="translate(-60.75 -76.43)"/><path class="cls-119" d="M112.67,337.27s1.91,36.06,1.72,44.46c0,2.48-3.82,2.86-4.77.38s-5-37.78-4.58-42.36S112.1,334,112.67,337.27Z" transform="translate(-60.75 -76.43)"/><path class="cls-120" d="M99.81,306.37s-7.45,5.32-8.18,7.09-.9,6.69.64,10,1,15.36,1.52,17.72,6.93,3.11,10.87,2.35,8.71-3.62,8.56-8.21,0-13.17.2-15.24a35.68,35.68,0,0,0-1-10.76c-.2-.73-2.67-1.5-2.67-1.5S107.14,306.06,99.81,306.37Z" transform="translate(-60.75 -76.43)"/><path class="cls-121" d="M106.28,305.37a.75.75,0,0,0,0,.24c.08.54.36,1.94.41,2.52s-.59,1.53-2.1,1.5-4.06-.66-4.92-2.46a40.09,40.09,0,0,0-.25-5.31Z" transform="translate(-60.75 -76.43)"/><path class="cls-3" d="M110.05,294.58c-.86-4.61-4.51-7.23-8.65-6.27a8.73,8.73,0,0,0-6.47,4.39c-2,3.93.94,7.24,2.81,9.33.79.86,1.38,1.52,1.76,1.94.14.16.27.32.41.46l0,.05h0a9.31,9.31,0,0,0,3.83,2.33,5.16,5.16,0,0,0,5.08-1C110,304.57,110.92,299.19,110.05,294.58Z" transform="translate(-60.75 -76.43)"/><path class="cls-122" d="M110.14,291.9s-.58,4.29-8.16,5.44a2.93,2.93,0,0,0-1.15,0l.43,2.86-1.14.15s.29-1.72-1.15-1.87-.43,3.87.86,4.16l.12,1.84s-5.56-3.71-6.41-7.86S95.11,291,95.11,291s.72-2.57,5-4.15S110.28,289.33,110.14,291.9Z" transform="translate(-60.75 -76.43)"/><path class="cls-120" d="M112.26,309s7.44,10.95,8.3,13.81l6.72-6.44a2.94,2.94,0,0,1,2.87,1.86c1.14,2.15,0,2.87,0,2.87s-8.16,8.58-10,8.58-9.45-11.45-9.45-11.87S112.26,309,112.26,309Z" transform="translate(-60.75 -76.43)"/><path class="cls-3" d="M129.45,316.47l.77-.85.4-3.49s.78,0,1,.51a4.66,4.66,0,0,1,.2,1.69s4-3.69,4.3-3.52.17.86.17.86l-2.92,2.92a8.47,8.47,0,0,1,.43,2.66,2.39,2.39,0,0,1-1.37,1.37,3.65,3.65,0,0,1-1.55-.17l-1.12.86a5.05,5.05,0,0,1-1.46-1.81Z" transform="translate(-60.75 -76.43)"/><circle class="cls-123" cx="81.25" cy="194.57" r="4"/><circle class="cls-124" cx="304.25" cy="321.57" r="4"/><path class="cls-125" d="M445.33,247a3.33,3.33,0,1,1-3.33-3.33A3.33,3.33,0,0,1,445.33,247Z" transform="translate(-60.75 -76.43)"/><circle class="cls-126" cx="213" cy="2" r="2"/><circle class="cls-127" cx="39.25" cy="352.57" r="2"/><circle class="cls-102" cx="24.67" cy="62.67" r="2"/><circle class="cls-102" cx="302.33" cy="68.67" r="4"/><circle class="cls-102" cx="208.25" cy="205.57" r="4"/><path class="cls-102" d="M311.42,101.1a2.34,2.34,0,1,1-2.34-2.34A2.34,2.34,0,0,1,311.42,101.1Z" transform="translate(-60.75 -76.43)"/><path class="cls-128" d="M65.42,229.76a2.34,2.34,0,1,1-2.34-2.33A2.34,2.34,0,0,1,65.42,229.76Z" transform="translate(-60.75 -76.43)"/><circle class="cls-129" cx="386.25" cy="289.24" r="2.33"/><path class="cls-130" d="M144.75,182.76a2.34,2.34,0,1,1-2.33-2.33A2.33,2.33,0,0,1,144.75,182.76Z" transform="translate(-60.75 -76.43)"/><path class="cls-96" d="M228.06,92.59l.2-.11.26-.14.26-.12.25-.11.26-.09.05,0h0l.18-.06.27-.07.26-.06.28,0,.18,0h.73a2.38,2.38,0,0,1,.37.06h0a3.31,3.31,0,0,1,.42.12,2.38,2.38,0,0,1,.51.24l4.22,2.45a3,3,0,0,0-.93-.36h0a3.43,3.43,0,0,0-1.07,0h0a4.76,4.76,0,0,0-1.17.26h0a7.32,7.32,0,0,0-1.29.59l-117.84,68-4.22-2.45Z" transform="translate(-60.75 -76.43)"/><path class="cls-96" d="M103.87,171.33c0-.1,0-.21,0-.31l0-.31,0-.31c0-.11,0-.21,0-.32h0c0-.1,0-.2.05-.3s0-.22.07-.33,0-.23.08-.34l.09-.34c0-.08,0-.17.07-.26v0l0-.05c0-.11.06-.22.1-.33s.08-.22.11-.32l.12-.32c0-.1.08-.2.13-.3a2.44,2.44,0,0,1,.1-.24v0l0,0c0-.1.09-.2.14-.31s.1-.22.16-.33l.19-.38.23-.41a.43.43,0,0,0,0-.07.56.56,0,0,0,0-.08c.15-.26.31-.51.47-.75s.26-.39.4-.58l.29-.37.24-.3.25-.29.24-.27,0,0,0,0,.19-.2.27-.27.28-.26.28-.25.15-.11,0,0,.11-.09.28-.21.27-.2.28-.18.26-.16.07,0,4.22,2.45a9.62,9.62,0,0,0-1.27.88l0,0a10.87,10.87,0,0,0-1.17,1.09l0,0a15,15,0,0,0-2,2.7.43.43,0,0,0,0,.07,14.53,14.53,0,0,0-.75,1.47v0a16.33,16.33,0,0,0-.57,1.56v0a13.27,13.27,0,0,0-.36,1.58h0a10.35,10.35,0,0,0-.13,1.55l.23,80.52a7.33,7.33,0,0,0,.13,1.37v0a4.6,4.6,0,0,0,.36,1.12v0a3.49,3.49,0,0,0,.48.74l.17.22a3.18,3.18,0,0,0,.7.57L106,256.22a3.18,3.18,0,0,1-.7-.57l-.17-.22a3.25,3.25,0,0,1-.23-.29,3,3,0,0,1-.24-.43v0c0-.1-.09-.21-.14-.32s-.07-.22-.11-.34a3,3,0,0,1-.08-.32l0-.14v0a.69.69,0,0,1,0-.13,2.87,2.87,0,0,1,0-.31l0-.31a2.66,2.66,0,0,1,0-.3c0-.1,0-.2,0-.3v0l-.23-80.52C103.86,171.52,103.87,171.43,103.87,171.33Z" transform="translate(-60.75 -76.43)"/><path class="cls-131" d="M114.43,163.08a14,14,0,0,0-6.35,11l.23,80.52c0,4,2.87,5.67,6.39,3.64l117.84-68a14,14,0,0,0,6.35-11l-.23-80.52c0-4-2.87-5.67-6.39-3.64Z" transform="translate(-60.75 -76.43)"/><path class="cls-103" d="M120.15,164.4a12.62,12.62,0,0,0-5.72,9.92l.2,72.71c0,3.65,2.59,5.12,5.77,3.28l106.42-61.44a12.62,12.62,0,0,0,5.72-9.92l-.2-72.71c0-3.65-2.59-5.12-5.77-3.28Z" transform="translate(-60.75 -76.43)"/><path class="cls-104" d="M139,173.68V175a1,1,0,0,0,1.5.87l6.15-3.55a1,1,0,0,0,.5-.87v-1.3a1,1,0,0,0-1.49-.87l-6.16,3.55A1,1,0,0,0,139,173.68Z" transform="translate(-60.75 -76.43)"/><path class="cls-104" d="M119.46,191.32v1.31a1,1,0,0,0,1.5.86l25.65-14.7a1,1,0,0,0,.5-.87v-1.31a1,1,0,0,0-1.49-.86L120,190.45A1,1,0,0,0,119.46,191.32Z" transform="translate(-60.75 -76.43)"/><g class="cls-105"><path class="cls-104" d="M130,198.23v1.31a1,1,0,0,0,1.49.87l15.08-8.65a1,1,0,0,0,.5-.86v-1.31a1,1,0,0,0-1.49-.87l-15.08,8.65A1,1,0,0,0,130,198.23Z" transform="translate(-60.75 -76.43)"/></g><path class="cls-106" d="M123.44,195.53v1.3a1,1,0,0,0,1.49.87l21.68-12.43a1,1,0,0,0,.5-.86V183.1a1,1,0,0,0-1.49-.86l-21.68,12.42A1,1,0,0,0,123.44,195.53Z" transform="translate(-60.75 -76.43)"/><path class="cls-104" d="M139,203.47v1.3a1,1,0,0,0,1.5.87l6.15-3.55a1,1,0,0,0,.5-.87v-1.3a1,1,0,0,0-1.49-.86l-6.16,3.54A1,1,0,0,0,139,203.47Z" transform="translate(-60.75 -76.43)"/><path class="cls-132" d="M119.46,221.11v1.31a1,1,0,0,0,1.5.86l25.65-14.7a1,1,0,0,0,.5-.87V206.4a1,1,0,0,0-1.49-.86L120,220.25A1,1,0,0,0,119.46,221.11Z" transform="translate(-60.75 -76.43)"/><g class="cls-105"><path class="cls-104" d="M130,228v1.31a1,1,0,0,0,1.49.87l15.08-8.65a1,1,0,0,0,.5-.86v-1.31a1,1,0,0,0-1.49-.87l-15.08,8.65A1,1,0,0,0,130,228Z" transform="translate(-60.75 -76.43)"/></g><path class="cls-133" d="M123.44,225.32v1.3a1,1,0,0,0,1.49.87l21.68-12.43a1,1,0,0,0,.5-.86v-1.31a1,1,0,0,0-1.49-.86l-21.68,12.42A1,1,0,0,0,123.44,225.32Z" transform="translate(-60.75 -76.43)"/><path class="cls-134" d="M407.6,269.4a25.21,25.21,0,0,0,.1,4.55c.3,1.18,2.08,1.38,3.06,1s1.68-1.77,2.37-2.27,3.56-2.37,3.86-3.65-2.37-1.09-3.95-.5a27.61,27.61,0,0,1-3.36,1Z" transform="translate(-60.75 -76.43)"/><path class="cls-134" d="M428.84,263.75a24.91,24.91,0,0,0,2.07,4.05c.78.93,2.47.34,3.19-.45s.73-2.33,1.14-3.07,2.17-3.68,1.88-5-2.61.05-3.77,1.28a29.21,29.21,0,0,1-2.59,2.34Z" transform="translate(-60.75 -76.43)"/><path class="cls-4" d="M393.48,253.11s12.25-5.53,16.2-5.73c3.36,0,1.38,22.12,1,23.11-.4.39-2,2-3.16.39-.6-2.17-1.19-13.43-1.78-14.22s-5.53,4.74-10.07,4.74S391.51,256.66,393.48,253.11Z" transform="translate(-60.75 -76.43)"/><path class="cls-4" d="M384.4,255.48S382.23,262,388,265.75s14.22,1.58,18.37-1.19,4.89-4.54,4.89-4.54.25-4.74-5.68-7.31-10.07-1.38-10.07-1.38Z" transform="translate(-60.75 -76.43)"/><path class="cls-96" d="M401.29,229.42c-2.3-3.71-7.32-4.8-7.32-4.8-6.15-1.26-8.11,1-8.11,1a9.4,9.4,0,0,0-2,5.54c0,2.19,2.3,8.5,2.45,13.5-.06,3.47-2.19,9.24-2.28,10.12-.18,1.72,5.68,6.71,16.35,4a4.92,4.92,0,0,0,1.72-1.55l.12-12.9c.05-.72.1-1.47.15-2.28C402.89,233.49,401.29,229.42,401.29,229.42Z" transform="translate(-60.75 -76.43)"/><path class="cls-96" d="M385.86,225.6s-4.47,2.57-5.16,14.34c.58,2.17,4,3.31,6.63,1.6S387.24,227.6,385.86,225.6Z" transform="translate(-60.75 -76.43)"/><path class="cls-121" d="M389.16,220.12s.54,3.1,0,4.52c-.08.7,3,3.09,5.76,2.48,1.59-.36,1.5-1.16,1.5-1.16a8.55,8.55,0,0,1-1.15-4.33C395.45,219.5,391,219.68,389.16,220.12Z" transform="translate(-60.75 -76.43)"/><path class="cls-3" d="M399.52,213.88a7.31,7.31,0,1,1-7.3-7.31A7.3,7.3,0,0,1,399.52,213.88Z" transform="translate(-60.75 -76.43)"/><path class="cls-3" d="M399.52,214.37s.23,6.89-1.36,8.37-4.18-1-8.09-1.88,3.17-8.61,3.17-8.61Z" transform="translate(-60.75 -76.43)"/><path class="cls-103" d="M397.85,226.15l-1.91-1.07s-4.87-.45-6.63-1.6l-.91,1.3a5.58,5.58,0,0,0,4.34,2.67c3.13.3,4.57-.92,4.57-.92Z" transform="translate(-60.75 -76.43)"/><path class="cls-96" d="M399.21,227.24a13.23,13.23,0,0,1,4.94,3.95c1.78,2.56,3.55,10.27,4.54,10.86s4.54,2.17,4.35,4.34-2.77,3.56-6.32,2.18-7.9-5.14-9.29-6.72S399.21,227.24,399.21,227.24Z" transform="translate(-60.75 -76.43)"/><path class="cls-4" d="M405.14,255.87s9.67-3.16,11.85-3.35,13.82,8.88,15.4,11.06c1,1.18-.59,3.55-1.78,3.35s-13.82-7.9-14.81-8.09-7.5,7.11-11.26,8.09S400.2,261.4,405.14,255.87Z" transform="translate(-60.75 -76.43)"/><path class="cls-122" d="M394.17,205.56s5.93,1,6.23,6.37c-.15,4.15-3.56,5-4,5.48s-1.49-1.48-2.52.44.44,2.37,1,3.12c.3.74-.88,1.62-2.07,1.77s-1.57,1.48-3.53.74-2.25-2.81-3.73-4.88a10.09,10.09,0,0,1-.44-9.49C386.77,206,392.25,205.26,394.17,205.56Z" transform="translate(-60.75 -76.43)"/><path class="cls-122" d="M388.69,222.89s-.14-.15-1.63,3.11-2.22,4.89-.59,8.59a40.48,40.48,0,0,1,2.08,5.48s2.66-2.22,1.92-7.11-1.72-7-1.31-8.32S390.47,222.89,388.69,222.89Z" transform="translate(-60.75 -76.43)"/><path class="cls-135" d="M69.49,282.25a6.34,6.34,0,0,0-2.88,5l0,5.79c0,1.83,1.3,2.57,2.89,1.65l27.05-15.62,1.3,2.22,1.28-3.71,3-1.75a6.29,6.29,0,0,0,2.87-5l0-5.79c0-1.83-1.29-2.57-2.89-1.65Z" transform="translate(-60.75 -76.43)"/><path class="cls-3" d="M182.11,350.14s.55-1.88.77-2.54,1.77-2.21,2.43-2.21-.44,1.77-.44,1.77,2.1-1.66,2.66-1-.78,3.1-1.44,3.65a15.8,15.8,0,0,0-1.55,1.66Z" transform="translate(-60.75 -76.43)"/><path class="cls-119" d="M149.16,338.55s-6.64,9.38-6.64,16.24,9.29,4.2,9.29,4.2,3.31-9.07,2-13.93A10.29,10.29,0,0,0,149.16,338.55Z" transform="translate(-60.75 -76.43)"/><path class="cls-119" d="M166.63,372.37s-.34,34.51-.67,44.13c0,0,2.32-1,3.65.66s-6,3.65-7.3,3.32c-.66-.33-2.32-36.83-4.31-39.48-2.32-2.32-3.32.66-3.32.66l-.66,29.2s2.65-.67,3.32,1.32-5,3.32-6.64,2.66c-1-3.32-3.65-39.48-3-44.79S166.63,372.37,166.63,372.37Z" transform="translate(-60.75 -76.43)"/><ellipse class="cls-136" cx="98.58" cy="338.67" rx="24.68" ry="14.66"/><path class="cls-96" d="M167.74,372.79c-.5,2.5-7.64,3.76-11.81,3.09s-8.68-2.72-8.53-7.56c0,0-.63-19.34-.63-23.15a11.26,11.26,0,0,1,2.39-6.62s2.34-2.67,9.69-1.17c0,0,6,1.3,8.74,5.73,0,0,1.9,4.86,1.27,15S167.74,372.79,167.74,372.79Z" transform="translate(-60.75 -76.43)"/><path class="cls-121" d="M153.11,332s.63,3.7,0,5.39c-.11.85,3.59,3.7,6.87,3,1.9-.42,1.8-1.37,1.8-1.37a10.12,10.12,0,0,1-1.38-5.18C160.61,331.27,155.33,331.48,153.11,332Z" transform="translate(-60.75 -76.43)"/><path class="cls-3" d="M165.48,324.56a8.72,8.72,0,1,1-8.72-8.72A8.72,8.72,0,0,1,165.48,324.56Z" transform="translate(-60.75 -76.43)"/><path class="cls-3" d="M165.48,325.14s.1,8.74-1.8,10.5-4.82-1.65-9.49-2.75S158,322.61,158,322.61Z" transform="translate(-60.75 -76.43)"/><path class="cls-119" d="M165,316.51s3,3.72.81,5.93-8.15.41-8.15.41,1.71,2.51,1.71,3.92a18.56,18.56,0,0,0,.7,3.83l-1.21.2s0-3.32-1.31-3.32-1.1,3.32-.1,4.22a15.41,15.41,0,0,0,1.31,1.11L156.94,335a7.35,7.35,0,0,1-3.92-.6,24.06,24.06,0,0,1-4.63-5.54c-1.51-2.81-2-6.74-.1-8.85,0,0,.4-2.62,2.11-3.73s7.25-2.61,10.67-.4C164,317.71,164.49,317.21,165,316.51Z" transform="translate(-60.75 -76.43)"/><path class="cls-119" d="M167.59,343.11s-3.4-.49-3,5.26,6.42,15.93,10,15.71,10.84-9.51,10.39-13.27a2.34,2.34,0,0,0-4-.67c-.66,1.11-4.2,6.42-5.09,7.08,0,0-4-5.75-4.86-8.4S168.78,343.6,167.59,343.11Z" transform="translate(-60.75 -76.43)"/><path class="cls-119" d="M299.68,218.37s.33,34.51.67,44.13c0,0-2.33-1-3.65.66s6,3.65,7.3,3.32c.66-.33,2.32-36.83,4.31-39.48,2.32-2.32,3.32.66,3.32.66l.66,29.2s-2.65-.67-3.32,1.32,5,3.32,6.64,2.66c1-3.32,3.65-39.48,3-44.79S299.68,218.37,299.68,218.37Z" transform="translate(-60.75 -76.43)"/><ellipse class="cls-137" cx="246.23" cy="184.67" rx="24.68" ry="14.66"/><path class="cls-131" d="M298.57,218.79c.5,2.5,7.64,3.76,11.81,3.09s8.68-2.72,8.53-7.56c0,0,.63-19.34.63-23.15a11.26,11.26,0,0,0-2.39-6.62s-2.34-2.67-9.69-1.17c0,0-6,1.3-8.74,5.73,0,0-1.91,4.86-1.27,15S298.57,218.79,298.57,218.79Z" transform="translate(-60.75 -76.43)"/><path class="cls-121" d="M313.2,178s-.64,3.7,0,5.39c.1.85-3.6,3.7-6.87,3-1.9-.42-1.8-1.37-1.8-1.37a10.05,10.05,0,0,0,1.37-5.18C305.69,177.27,311,177.48,313.2,178Z" transform="translate(-60.75 -76.43)"/><path class="cls-3" d="M300.83,170.56a8.72,8.72,0,1,0,8.72-8.72A8.72,8.72,0,0,0,300.83,170.56Z" transform="translate(-60.75 -76.43)"/><path class="cls-3" d="M300.83,171.14s-.1,8.74,1.8,10.5,4.82-1.65,9.49-2.75-3.78-10.28-3.78-10.28Z" transform="translate(-60.75 -76.43)"/><path class="cls-120" d="M91.63,313.46s-4.88,9.79-5.88,18.54,11,17.5,11,17.5,3.1-2.71,2.3-4.73-8-10.27-8-11.52,5-11,5-11S97.51,312.92,91.63,313.46Z" transform="translate(-60.75 -76.43)"/><ellipse class="cls-138" cx="177.67" cy="232.85" rx="20.5" ry="12.18"/><path class="cls-3" d="M229.5,284.17s.83,18.33,1.5,24.16a1.76,1.76,0,0,0,2.83.84c.67-.67,1-23.5.67-25S229.5,284.17,229.5,284.17Z" transform="translate(-60.75 -76.43)"/><path class="cls-139" d="M233.92,308.5a3.42,3.42,0,0,1-2.92-.17,29.14,29.14,0,0,1-4.83-.41c-.84.08-.75.75.5,1.41A17.39,17.39,0,0,0,231.5,311c1.08.08,2.08.33,2.33-.5A3.39,3.39,0,0,0,233.92,308.5Z" transform="translate(-60.75 -76.43)"/><path class="cls-3" d="M241.5,277.5s.83,18.33,1.5,24.17a1.75,1.75,0,0,0,2.83.83c.67-.67,1-23.5.67-25S241.5,277.5,241.5,277.5Z" transform="translate(-60.75 -76.43)"/><path class="cls-139" d="M245.92,301.83a3.45,3.45,0,0,1-2.92-.16c-.5-.09-3.58,0-4.83-.42-.84.08-.75.75.5,1.42a17.67,17.67,0,0,0,4.83,1.66c1.08.09,2.08.34,2.33-.5A3.39,3.39,0,0,0,245.92,301.83Z" transform="translate(-60.75 -76.43)"/><path class="cls-139" d="M226.5,254.5a76,76,0,0,0-2.5,19.75c.25,10-.75,19,.75,19.75a10.57,10.57,0,0,0,6.5,1c2.5-.5,5.25,1.5,13.5-1S254,284.75,255,282.75s-2.5-5-4.75-9.5-4.75-16-8.25-20.75S226.5,254.5,226.5,254.5Z" transform="translate(-60.75 -76.43)"/><path class="cls-3" d="M225.76,234.26,219,231s-2.05-2-2.56-2.46a13.71,13.71,0,0,0-4.51-1.12c-.62.1-1.74,1-1.44,1.23s3.18,1.74,3.28,2.35-1,1.44-.61,1.85,1.33-.41,2-.41a10,10,0,0,1,2.35.82L224,237Z" transform="translate(-60.75 -76.43)"/><path class="cls-140" d="M240.19,227.69s-1.25-1.37-3.3,1.25-3.76,6.49-6.6,6.15-7.51-2.62-7.51-2.62-2.05,1.37-1.71,3.41c0,0,6.6,4.9,11,4.67s9.22-4.78,10.24-8S240.19,227.69,240.19,227.69Z" transform="translate(-60.75 -76.43)"/><path class="cls-140" d="M226.5,256.49c.41,2,6.23,3.06,9.63,2.52s7.06-2.21,6.94-6.16c0,0,.52-15.75.52-18.85a9.18,9.18,0,0,0-2-5.4s-1.91-2.17-7.89-.95c0,0-4.88,1.06-7.12,4.67,0,0-1.55,4-1,12.22S226.5,256.49,226.5,256.49Z" transform="translate(-60.75 -76.43)"/><path class="cls-121" d="M238.42,223.28s-.52,3,0,4.39c.09.69-2.93,3-5.6,2.41-1.55-.35-1.46-1.12-1.46-1.12a8.27,8.27,0,0,0,1.12-4.22C232.31,222.67,236.61,222.85,238.42,223.28Z" transform="translate(-60.75 -76.43)"/><path class="cls-3" d="M228.35,217.21a7.1,7.1,0,1,0,7.1-7.11A7.1,7.1,0,0,0,228.35,217.21Z" transform="translate(-60.75 -76.43)"/><path class="cls-3" d="M228.35,217.68s-.09,7.12,1.46,8.55,3.93-1.34,7.73-2.23-3.08-8.38-3.08-8.38Z" transform="translate(-60.75 -76.43)"/><path class="cls-141" d="M231.2,211.21s-2.56.56-3.33,4.45c.33,1.66,2.66.33,3.55,2.55a11.86,11.86,0,0,0,1.45,2.89l.55-.22s0-1.78.78-1.78,1,2.11.56,3a3.34,3.34,0,0,1-1.45,1.34s1.11,1.89,1.67,2.11a7.45,7.45,0,0,0,3.33-.56,11,11,0,0,0,3.34-3.67c1.11-1.77,2.11-4.88,1.44-7a4.07,4.07,0,0,0-2.22-2.66,5.6,5.6,0,0,0-2.45-1.78A7.73,7.73,0,0,0,231.2,211.21Z" transform="translate(-60.75 -76.43)"/><path class="cls-3" d="M219.56,241s-9.95-4.43-11.29-5.18-2.34-3.51-2.84-4.09-2.75-1.93-2.67-1.34S204,232,204,232a9.8,9.8,0,0,0-1,2.34c-.17.92,1.09,2.76,1.75,3.26a6.07,6.07,0,0,0,2.26.67s8.11,5.43,9.45,5.51A2.69,2.69,0,0,0,219.56,241Z" transform="translate(-60.75 -76.43)"/><path class="cls-140" d="M228.41,232s-1.25-1.37-3.3,1.25-3.76,6.49-6.6,6.14-7.51-2.61-7.51-2.61-2.05,1.36-1.71,3.41c0,0,6.6,4.9,11,4.67s9.22-4.78,10.24-8S228.41,232,228.41,232Z" transform="translate(-60.75 -76.43)"/><path class="cls-141" d="M230.63,215.91a5.6,5.6,0,0,1,.85,5c-.85,2.9.34,2.9,1.54,6.66s-2.22,8.19,1,13.66,12,4.78,15.88-.69-2.22-9.39-2.39-14.34,3.76-7.85-.68-11.26-6.32-7.17-11.78-5.64S228.24,213.52,230.63,215.91Z" transform="translate(-60.75 -76.43)"/><path class="cls-142" d="M174.17,188.16h0l.05-.06Z" transform="translate(-60.75 -76.43)"/><path class="cls-131" d="M174.15,188.16a9.78,9.78,0,0,0,1.26,1.59c.38.2,5.84,2.5,6.13,2.62l2.91-7.45.32-.3,3,4.16c.29-.45,5.72-9.05,6.1-9.69a30.54,30.54,0,0,0,1.19-2.89c3.46,0,8.78-1.31,10.72-.21,2.2,1.26,3.06,8.11,3.22,9.48l-48.88,28.22c.15-1.54,1-9.38,3.16-13.16C165.24,197.14,170.72,192.21,174.15,188.16Z" transform="translate(-60.75 -76.43)"/><path class="cls-143" d="M175.65,186.16h.08a34.62,34.62,0,0,0,8.78-1.38l-.06.15-2.91,7.45c-.29-.12-5.75-2.42-6.13-2.62a8,8,0,0,1-1.24-1.59l0-.06Z" transform="translate(-60.75 -76.43)"/><path class="cls-143" d="M193.61,175.79l1.5.28-.05.13a30.54,30.54,0,0,1-1.19,2.89c-.38.64-5.81,9.24-6.1,9.69l-3-4.16a94.47,94.47,0,0,0,8.61-8.58Z" transform="translate(-60.75 -76.43)"/><path class="cls-144" d="M192.81,175.84a2.93,2.93,0,0,0,.57.2,94.47,94.47,0,0,1-8.61,8.58l-.32.3.06-.15a34.62,34.62,0,0,1-8.78,1.38c.17-.25.33-.49.48-.73a18.06,18.06,0,0,0,2.11-7.21,16.45,16.45,0,0,0,3.85.25,4.58,4.58,0,0,0,2.09-.68,8.52,8.52,0,0,0,2.1-1.74,58.36,58.36,0,0,0,4.25-5.28C190.86,172.87,191.45,175.2,192.81,175.84Z" transform="translate(-60.75 -76.43)"/><path class="cls-145" d="M184,140.58c2.82-1.63,5.63-1.83,6.78-.74,1.5,1.44,2.1,1.36,2.13,1.35s2.86-.36,3.62,1.21.51,5.44,0,6.74a16.27,16.27,0,0,0-.49,4.29l-.74,1.87-1.08,1.56a6.68,6.68,0,0,1-1.49,1.47c-.28.16-.52.19-.67,0-.5-.71-.38-2.64,0-4.87s.48-4.86.23-5.15a.06.06,0,0,0-.07,0,3,3,0,0,0-.34.5,2.18,2.18,0,0,1-.66.66c-.5.29-1.23.27-2.3-.79a3.11,3.11,0,0,0-.44.2,4.25,4.25,0,0,0-1.68,2c-.87,1.93-.85,5.66-3.47,9.32a17.71,17.71,0,0,1-5.48,4.81,10.76,10.76,0,0,1-1.25.65,4.34,4.34,0,0,1-1.8,2.93,1.77,1.77,0,0,1-.31.15l-1.38-.64s-.51-5.58-1.26-6.44-.52-5.3,1.72-8.6a31.94,31.94,0,0,1,3.24-4.3,18.21,18.21,0,0,1,4.6-6.26A14.09,14.09,0,0,1,184,140.58Z" transform="translate(-60.75 -76.43)"/><path class="cls-3" d="M188.47,148.85a3.11,3.11,0,0,1,.44-.2c1.07,1.06,1.8,1.08,2.3.79a2.18,2.18,0,0,0,.66-.66,3,3,0,0,1,.34-.5c.32.3.2,2.95-.16,5.16s-.49,4.16,0,4.87c.15.21.39.18.67,0a6.68,6.68,0,0,0,1.49-1.47l1.07-1.54a1,1,0,0,1,.2-.15.69.69,0,0,1,.68,0c1.25.62-1.18,7.83-2.15,8.43a1.12,1.12,0,0,1-.94.14A48.36,48.36,0,0,1,192,168.4a12.84,12.84,0,0,1-1.36,2.36,58.36,58.36,0,0,1-4.25,5.28,8.52,8.52,0,0,1-2.1,1.74,4.58,4.58,0,0,1-2.09.68,16.45,16.45,0,0,1-3.85-.25,3,3,0,0,1-1.79-.9,20.39,20.39,0,0,1-1.14-3.41,2.85,2.85,0,0,1-.88.91c-1,.56-3.49-3.82-2.24-5.89a2,2,0,0,1,.67-.73l.16-.08,1.38.64a1.77,1.77,0,0,0,.31-.15,4.34,4.34,0,0,0,1.8-2.93,10.76,10.76,0,0,0,1.25-.65,17.71,17.71,0,0,0,5.48-4.81c2.62-3.66,2.6-7.39,3.47-9.32A4.25,4.25,0,0,1,188.47,148.85Z" transform="translate(-60.75 -76.43)"/><g class="cls-17"><path class="cls-146" d="M455.26,317.58l-92.53,52.51a12.48,12.48,0,0,1-12.52-.11l-66.87-40.59a5.4,5.4,0,0,1,.09-9.34l93.09-52.83a11.38,11.38,0,0,1,11.4.1l67.43,40.92A5.4,5.4,0,0,1,455.26,317.58Z" transform="translate(-60.75 -76.43)"/></g><polygon class="cls-147" points="383.82 220.22 383.83 218.96 383.89 218.93 383.83 218.9 383.83 218.89 383.83 218.89 317.51 179.68 229.43 229.66 229.24 243.82 295.34 282.89 295.33 283.06 295.48 282.97 295.62 283.06 295.63 282.89 383.42 233.08 383.43 232.3 295.64 282.15 295.8 270.09 383.82 220.22"/><polygon class="cls-16" points="383.07 220.54 295.7 269.97 295.68 282.12 382.95 232.57 383.07 220.54"/><polygon class="cls-148" points="295.66 269.96 295.72 282.12 230.55 243.43 230.71 231.67 295.66 269.96"/><polygon class="cls-16" points="353.31 224.99 341.63 231.62 293.82 203.35 305.5 196.72 353.31 224.99"/><polygon class="cls-149" points="380.51 201.43 380.53 200.23 380.58 200.2 380.53 200.17 380.53 200.17 380.52 200.17 317.21 162.74 233.13 210.45 232.95 223.96 296.05 261.26 296.04 261.42 296.18 261.34 296.32 261.42 296.32 261.26 380.13 213.71 380.13 212.97 296.33 260.55 296.48 249.04 380.51 201.43"/><polygon class="cls-16" points="379.8 201.74 296.39 248.93 296.38 260.52 379.68 213.23 379.8 201.74"/><polygon class="cls-148" points="296.36 248.92 296.41 260.52 234.2 223.59 234.35 212.37 296.36 248.92"/><polygon class="cls-16" points="351.39 205.99 340.24 212.31 294.6 185.33 305.75 179 351.39 205.99"/><polygon class="cls-150" points="234.22 186.66 234.23 185.46 234.18 185.43 234.23 185.4 234.23 185.4 234.23 185.4 298.3 149.28 381.38 198.72 381.28 212.23 317.43 248.22 317.43 248.38 317.3 248.3 317.16 248.38 317.16 248.22 234.35 198.94 234.36 198.21 317.16 247.5 317.25 236 234.22 186.66"/><polygon class="cls-16" points="234.93 186.99 317.34 235.88 317.12 247.48 234.81 198.48 234.93 186.99"/><polygon class="cls-148" points="317.38 235.88 317.08 247.48 380.04 211.84 380.13 200.61 317.38 235.88"/><polygon class="cls-16" points="263.24 191.82 274.25 198.37 320.45 172.34 309.43 165.78 263.24 191.82"/><path class="cls-119" d="M304.83,160.75a3.07,3.07,0,0,0-2.66,1.08c-1.17,1.34-.25,1.5-1.09,2.75s-1.83,1.34-1.75,2.84.25,3.08,1.84,3.41,1.33,1.92,2,2.17,1.41.17,1.5.5-1,2.08-.75,2.83,1,.17,1.08-.08.42-1.67,1.25-2.08,1.42.58,1.08,1.75-1.66,1.91-1.66,2.58a4.43,4.43,0,0,0,.33,2c.33.75-.58.58.33,1.17a5.33,5.33,0,0,0,4.5.33,4.67,4.67,0,0,0,2.59-2c.16-.25.58-1.67,1.33-2.08a6.19,6.19,0,0,0,3.25-2.34,5,5,0,0,0,1.08-3.66s1,.25.84-2.34-1.17-2.83-1.84-4.16-.16-1.67-1.91-3.17a6.72,6.72,0,0,0-3.25-1.67s-1.09-1.5-2.34-1.33a16.22,16.22,0,0,0-3.08.92S306.5,158.83,304.83,160.75Z" transform="translate(-60.75 -76.43)"/><path class="cls-3" d="M280.62,175.37s-.12-3-.12-3.37.75-2,.12-2.63-1.5,2-1.5,2-2.87-3.75-3.75-3.75-.75,2.63-.12,4A18.05,18.05,0,0,0,277,174.5l.5,1.25Z" transform="translate(-60.75 -76.43)"/><path class="cls-4" d="M300.17,187.67s-10.67,3.5-14.17,1.5-5.17-15-5.17-15a3.69,3.69,0,0,0-4,1.66s1.67,14.5,4.5,18.17,16.5,3.83,19.5,2.33,3.5-5.16,2.34-6.5A10.19,10.19,0,0,0,300.17,187.67Z" transform="translate(-60.75 -76.43)"/><path class="cls-151" d="M407.86,185.25a13.91,13.91,0,1,1-13.9-13.9A13.9,13.9,0,0,1,407.86,185.25Z" transform="translate(-60.75 -76.43)"/><polygon class="cls-103" points="331.44 115.55 325.57 109.67 328.38 106.86 331.44 109.93 338.89 102.48 341.7 105.29 331.44 115.55"/></g></g></svg>